<svg id="Capa_1" data-name="Capa 1" xmlns="http://www.w3.org/2000/svg" viewBox="0 0 247.66 434.71"><defs><style>.cls-1{fill:#2c4375;}.cls-2{fill:#1d0e0f;}.cls-3{fill:#3d62a9;}.cls-4{fill:#852b2b;}.cls-5{fill:#9f3335;}.cls-6{fill:#692523;}.cls-7{fill:#692422;}.cls-8{fill:#702324;}.cls-9{fill:#3e62a9;}.cls-10{fill:#682422;}.cls-11{fill:#e0474a;}.cls-12{fill:#7f8888;}.cls-13{fill:#9a3133;}.cls-14{fill:#692122;}.cls-15{fill:#9d3234;}.cls-16{fill:#1d0f10;}.cls-17{fill:#b5cac8;}.cls-18{fill:#882b2c;}.cls-19{fill:#9e3335;}.cls-20{fill:#db4749;}.cls-21{fill:#df474a;}.cls-22{fill:#9e3234;}.cls-23{fill:#df4749;}.cls-24{fill:#9a3234;}.cls-25{fill:#9d3334;}.cls-26{fill:#6e2523;}.cls-27{fill:#6b2523;}.cls-28{fill:#702624;}.cls-29{fill:#9b3233;}.cls-30{fill:#7b2a29;}.cls-31{fill:#212f57;}.cls-32{fill:#cf4848;}.cls-33{fill:#963f3c;}.cls-34{fill:#556289;}.cls-35{fill:#9d423e;}.cls-36{fill:#20305a;}.cls-37{fill:#4a3634;}.cls-38{fill:#798384;}.cls-39{fill:#9b3234;}.cls-40{fill:#213059;}.cls-41{fill:#6e2625;}.cls-42{fill:#9c3133;}.cls-43{fill:#213159;}.cls-44{fill:#e04749;}.cls-45{fill:#9f3235;}.cls-46{fill:#d7dabb;}.cls-47{fill:#b4a88e;}.cls-48{fill:#da4648;}.cls-49{fill:#2d4375;}.cls-50{fill:#d44446;}.cls-51{fill:#d24345;}.cls-52{fill:#232f56;}.cls-53{fill:#252f55;}.cls-54{fill:#d54546;}.cls-55{fill:#d94848;}.cls-56{fill:#d8494a;}.cls-57{fill:#e1474a;}.cls-58{fill:#2d4376;}.cls-59{fill:#281212;}.cls-60{fill:#9a3132;}.cls-61{fill:#9e3235;}.cls-62{fill:#dc4748;}.cls-63{fill:#dc4749;}.cls-64{fill:#932f31;}.cls-65{fill:#ba3c3e;}.cls-66{fill:#973032;}.cls-67{fill:#92a3a2;}.cls-68{fill:#b43a3c;}.cls-69{fill:#c43f41;}.cls-70{fill:#b63a3c;}.cls-71{fill:#c54041;}.cls-72{fill:#de4749;}.cls-73{fill:#dd4749;}.cls-74{fill:#d84547;}.cls-75{fill:#de454a;}.cls-76{fill:#ca4042;}.cls-77{fill:#983132;}.cls-78{fill:#bd3d3e;}.cls-79{fill:#b93b3d;}.cls-80{fill:#d7dabc;}.cls-81{fill:#d84548;}.cls-82{fill:#3e62a8;}.cls-83{fill:#de4849;}.cls-84{fill:#3e61a7;}.cls-85{fill:#df4849;}.cls-86{fill:#3e60a6;}</style></defs><title>spidermanHeader</title><path class="cls-1" d="M354,402.05l-2.78-2.2c-.81-1-.26-1.92.05-2.83a58.43,58.43,0,0,0,3.33-17.36,46.36,46.36,0,0,0-1.56-13,5.11,5.11,0,0,1-.13-.53c-.16-1.44-1.64-3.35.07-4.18,1.52-.74,2.09,1.59,3.13,2.5a72.86,72.86,0,0,1,5.29,8.66c2.26,4.5,4.05,9.21,6.27,13.73.34.67.44-.18.64,0a2.36,2.36,0,0,1,1.55,1,44.64,44.64,0,0,0,16.3,12.44,4,4,0,0,1,1.5,1.15c8.08,3.67,16.38,6.18,25.39,4.66,3.5-.6,4.94-2.85,4.36-6.41.52,3.27-.55,5.05-3.65,6.11a.91.91,0,0,1-.5-.9c.94-5.57-2.59-9-5.94-12.55-4.28-4.52-9.56-7.57-15-10.37a181.35,181.35,0,0,1-20.72-11.73,6.17,6.17,0,0,1-2.59-2.37,15.91,15.91,0,0,1,4.29-8.26c3.08-3.33,6.47-6.15,11.1-7.06a4.51,4.51,0,0,1,3.44.28c11.64,5.4,20.59,13.92,28.06,24.16a104.38,104.38,0,0,1,9.73,16c1.31,2.71,3.91,4.79,5.9,7.18.78.95,1.78,1.81,1.76,3.21a25.52,25.52,0,0,1-4.92,10c-2.2,2.91-5.35,4.57-8.65,2.93-8.67-4.31-18.12-3.6-27.25-5-12.52-1.86-23.81-6.86-34.44-13.52-.75-.47-1.49-1.43-2.42-.89a3.23,3.23,0,0,0-1.34,3.12C354.24,400.74,354.87,401.49,354,402.05Z" transform="translate(-185.65 -164.39)"/><path class="cls-1" d="M277.05,398l-2.36,1c-1-1.29-1-2.92-1.38-4.4-.89-3.21-1.74-3.47-4.08-1.15a81.39,81.39,0,0,1-17.61,13.41c-9.76,5.44-20.34,8.57-31.29,10.49a88.23,88.23,0,0,0-14.49,4.06c-1.35.48-2.9,1-2.53,3-3.36,1.58-5.12,1.07-7.6-1.45a44,44,0,0,1-7.22-8.85c-2.09-3.69-4.09-7.86-1.86-11.92,2.11-3.86,4.88-7.56,9.45-9.12,2.31-1.92,4.65-3.79,7.85-4,3.77-.26,5.21,1,5.3,4.79a34.23,34.23,0,0,1-.36,3.79,29.08,29.08,0,0,0,.2,8.43c.79,4,2.73,5.33,6.83,4.67a63,63,0,0,0,7.67-1.86c14.69-4.78,26.7-13,34.62-26.62a118.08,118.08,0,0,0,4.53-11.14c1.28-3.6,3.91-6.41,6.54-9a58.79,58.79,0,0,1,7.43-6.84,75.68,75.68,0,0,1,8-5.22c.7-.39,1.47-1,2.23-.28s.26,1.54-.08,2.27c-.83,1.81-1.77,3.58-2.63,5.38-.23.48-.46,1-.67,1.46a86.37,86.37,0,0,0-5.28,15.71,7.19,7.19,0,0,1-.2.8c-.31,2.06-1,4.07-.49,6.21a2.17,2.17,0,0,1-.29,1.59c-1.49,2.41-1.23,4.87-.3,7.38a4.71,4.71,0,0,1,.22.84C277.23,393.6,278.64,395.81,277.05,398Z" transform="translate(-185.65 -164.39)"/><path class="cls-1" d="M197.3,390.75c.75-3.84,3.12-6.86,5.38-9.82,4.81-6.29,9.87-12.41,15.95-17.55,3.58-3,7-6.3,11.46-8.16,4.27-1.12,8.54-1.73,12.84-.22,3.84,1.51,6.71,4.3,9.44,7.27a7.47,7.47,0,0,1,.48.63c.53,1.14,1.9,2,1.37,3.5-6,7.12-12,14.17-19.41,19.94a70,70,0,0,0-8.16,8.08,13.86,13.86,0,0,0-3,6.37,5.88,5.88,0,0,0,1,4.93c.52.73,1.26,1.38,1,2.43-.53.8-1.47.81-2.24,1.14a46.51,46.51,0,0,1-8,1.84c-4.37.45-6.29-1-6.79-5.27a31.17,31.17,0,0,1,.17-9.49c.45-2.31.68-5.13-1.18-6.7s-4.31-.29-6.5.21C199.9,390.17,199,392.06,197.3,390.75Z" transform="translate(-185.65 -164.39)"/><path class="cls-2" d="M297.45,592.2c-1.3-.87-2.75-1.57-3.44-3.11-4.24-6.52-5.4-13.38-2.3-20.71a17,17,0,0,1,.72-1.56c2.87-5.55,7-9.67,13.1-11.54a11.1,11.1,0,0,1,3.33-.63h1.73c2.2-.08,4.37-.07,6.35,1.11a8.1,8.1,0,0,0,2.87,1.29,5.14,5.14,0,0,1,2.16,1.66c.51.61,1.21,1,1.76,1.59,2.17,2.28,1.65,4.91,1,7.57-.24,1-.58,1.87-.9,2.8-.14.52-.39,1-.54,1.53a35.29,35.29,0,0,1-7.94,12.23c-1.18.85-2.49,1.5-3.68,2.34a21.23,21.23,0,0,1-6.74,2.89c-2.21.5-4.52.74-6.22,2.53A.94.94,0,0,1,297.45,592.2Z" transform="translate(-185.65 -164.39)"/><path class="cls-3" d="M354,402.05c.59-1.21-1.58-1.59-.73-3.11,2.2-3.94,1-4.42,5.24-1.71,12.11,7.71,25.15,12.84,39.65,14.12,4.66.41,9.5-.57,14,1.44a47.34,47.34,0,0,0,7.34,2.87c3.73,1,5.95.24,8.35-2.82,2.27-2.89,3.36-6.41,5.39-9.41.51,6.39-1.59,12.07-5.09,17.23-2.16,3.18-4.62,3.38-10.35,2-3.48-.87-6.81-2.37-10.21-3.59-2.12-.95-4.36-.29-6.55-.43-1.88-.12-3.77,0-5.65,0a45.37,45.37,0,0,1-11.8-2.53c-2.66-.84-5.3-1.74-7.94-2.64A74.12,74.12,0,0,1,354,402.05Z" transform="translate(-185.65 -164.39)"/><path class="cls-4" d="M355.88,365.27l-3.26-3.82c.84,4.76,2,8.7,2.4,12.81a54.49,54.49,0,0,1-3.07,23c-.28.86-.5,1.74-.75,2.61-.23,5.62,2.24,10.5,4.24,15.51a1.4,1.4,0,0,1-1.77-.94c-.72-2.46-2.31-3-4.67-2.31a91.44,91.44,0,0,0,3.35,11.82c.63,1.82,2.37,2.46,4,3.1,1,.38,1.51-.31,1.79-1.19a4.83,4.83,0,0,0-.32-3.46c-.41-1-1.08-2-.15-3.05,4.61,6.62,6.34,14.08,6.46,22-.08.44-.31.71-.79.68-2.84-2-3.25-1.81-4.1,1.65a9.44,9.44,0,0,0-.11,3.78c.16,1,.51,2-.41,2.8a.84.84,0,0,1-.77-.23c-1.41-3-2.53-6.09-2.19-9.51,1.37-.79,1.28.67,1.81,1.17,1.35-3.76,1.6-4,4.66-3.95-.24-3.46-.53-6.9-2-10.27-.63,1-1.26,2-2.57,2.24s-2.3-.51-3.71-.83c.52,2.75,1.43,5.27,2.16,7.84.33,1.18,1.07,2.42-.12,3.57-1.12-.06-1.2-1.06-1.61-1.78-3.53-10.26-6.93-20.56-8.62-31.32a101.56,101.56,0,0,1-1.14-10.31c.52-9.23.37-18.42-1.79-27.47-.32-1.35-.82-2.46-2.47-2.38-5.42.3-10.55-.37-14.64-4.43-.26-.26-.53-.51-.76-.79a8.93,8.93,0,0,1-1.26-2.48c-.23-4.11-.85-8.19-.92-12.31.15-.86.12-2,1.21-2.13.88-.13,1.32.81,1.78,1.44,1.62,2.22,3.4,4,6.49,2.87,2.76-2,3.38-3.59,2.47-6.73a170.79,170.79,0,0,0-6.16-18c-.44-1.05-.67-2.7-2.58-2A9.3,9.3,0,0,1,322,323.6c-1.49.07-1.87.78-1.47,2.17.31,1.1.84,2.3-.34,3.28a2,2,0,0,1-1.53-.22c-1.33-.84,0-2.24-.77-3.32-1.43,1.43-.81,3.3-1.14,4.94-2.82,3.9-3.26,8.58-4.26,13.06-.25,1.15-.4,2.32-.59,3.48,0,2.64-.61,5.21-.69,7.83a2.46,2.46,0,0,1-1.07,2.09.81.81,0,0,1-.88-.11c-1.32-3.3.15-6.57.15-9.85,0-.52.28-1,.32-1.58a15.66,15.66,0,0,0,.36-2.55,121.21,121.21,0,0,1,5.76-19.65,11.6,11.6,0,0,1,2.29-4c1.46-.47-1-.94,0-1.42a3.13,3.13,0,0,1,.51-.63c3.07-3,5.09-5.47,2.31-10.44-3-5.32-1.43-11.26,2.27-16.3,2.91-.08,2.63,2.4,3.3,4.12a10.07,10.07,0,0,1-1.88,2.33,9.1,9.1,0,0,0-.46,11.85,1.67,1.67,0,0,0,2.79.18c2.36-2.21,4.49-4.56,4.75-8a4.54,4.54,0,0,1,.46-1.84c.71-1,.51-2.06.58-3.13s-.13-2.2,1-2.55,1.83.48,2.37,1.38c.73,4.79.85,9.47-2.47,13.53-.4.48-1,1-.57,1.7s1.24.64,2,.64a3,3,0,0,0,2.43-1.54,14.43,14.43,0,0,0,2.27-7.24,49.43,49.43,0,0,0,.19-6.56,2.31,2.31,0,0,1,3.41-.83c2.11,2.77,3.42,6,4.86,9.11,1.15,2.47-.87,4.54-2.15,6.56-.37.58-1.16.92-1,1.8a1.12,1.12,0,0,1-1.6.79c-.66-1.62.77-2.43,1.42-3.52.92-1.55,2.21-3,1.73-5-.22-.93-.37-2.21-1.62-2.21-1.1,0-1.34,1.19-1.46,2-.54,3.86-2.47,7.16-4.14,10.57-1,1-2.06,1.83-3.61,1.43-1.16-3.46-4.19-4.49-8.07-2.73-1.23-.44-2.32-.69-1.92,1.3a6.18,6.18,0,0,1,.1,1.82,11.21,11.21,0,0,1-.22,1.29c-.07.42-.26,1,.11,1.22.53.31.8-.52,1.32-.57,1.85.67,3.89.93,5.41,2.36-2.29,1.64-1.53,3.52-.64,5.62,2,4.78,3.14,9.87,4.85,14.77.18.51.27,1.06.49,1.56,1,2.42,2.37,2.7,4.56,1,.68,0,.88.5,1,1a2.63,2.63,0,0,1-2.37,2.85c-1.28.24-1.37.86-1.07,1.93,1.13,4,2.46,8,3.68,12,.46,1.54,1.34,1.46,2.43.54a6.74,6.74,0,0,0,1.61-8.62c-.61-1.15-1.83-2.17-1-3.71,1.46-.56,2,.5,2.58,1.47a29.54,29.54,0,0,0,5.29,9.38c1.06,1.19,2.21,2.41,2.38,4.15A.94.94,0,0,1,355.88,365.27Z" transform="translate(-185.65 -164.39)"/><path class="cls-5" d="M274.31,484A125,125,0,0,1,259,465.47c.56-1.44,2-1.4,3.16-1.83s1.72.42,1.86,1.41c.27,1.89,1.12,3.63,1.37,5.53-.25-1.82-1.07-3.5-1.26-5.33-.15-1.52.63-2,1.72-1.07,2.58,2.21,5.32,3.47,8.73,2.31a16.67,16.67,0,0,0,7.88-5.15,2.29,2.29,0,0,1,.64-.51c2.35,0,4.61.83,7,.74,1.13,0,1.75.86,2.11,1.87,1.94,5.52,4.85,10.6,7.39,15.85.46,1,1.3,2,.54,3.06s-2.41.69-3.29.16c-4.68-2.76-8.65-1.21-12.84,1.32C281,485.64,277.56,486.36,274.31,484Z" transform="translate(-185.65 -164.39)"/><path class="cls-6" d="M274.31,484l.22-.5c5.24,3.13,9.39-.22,13.47-2.61a4.84,4.84,0,0,1,4.78-.54,22.46,22.46,0,0,0,7.45,2.07c-1-2-1.81-3.73-2.64-5.41-2.17-4.42-4.62-8.72-6.13-13.43a1.62,1.62,0,0,0-2-1.34c-2.25.34-4.31-.4-6.37-1.1a.61.61,0,0,1-.79,0,24.35,24.35,0,0,1-5.54-13.94,19.07,19.07,0,0,0-2.62-8.39c2.73.3,2.76-1.51,2.92-3.49.13-1.78.55-3.55.74-5.35,0-.73,1.07-.89.89-1.71a.89.89,0,0,1,1.44.25c.54,1.27.11,2.51-.16,3.74a61.36,61.36,0,0,0-1.23,8.32,7.51,7.51,0,0,0-.09,4.57c.68,3.95,1.39,7.89,3.47,11.42,2.8,4.74,6.24,5.58,11,2.68.91-.55,1.73-1.41,3-1,.9,2-1.33,2.15-2,3.44a16,16,0,0,0,6.76,1.5c4.74-.09,9.51.35,14.16-1a30.11,30.11,0,0,0,14.79-9.9c.66-.83.79-2,1.58-2.72a.88.88,0,0,1,.75.19,5.21,5.21,0,0,1,.66,2.34,17.58,17.58,0,0,0,18.41,7.23,7.48,7.48,0,0,1,2.16-.32,1.66,1.66,0,0,1,1.35.85c.42,1.24-.2,2.31-.58,3.41a121.84,121.84,0,0,1-7.79,18.33c2.83-1.49,4.68-1.39,6,1.35.78,1.6,2.33,1.07,3.49.09,1.6-1.34,2.95-3,4.5-4.36.78-.7,1.48-1.71,2.8-1.16-3.93,4.37-7.82,8.78-12.58,12.3a1.15,1.15,0,0,1,.3-1.48c1.37-1.17,1.23-2.07-.24-3-.83-.55-.79-2.3-2.25-2s-3.25.7-4.21,2.22c-2.37,3.76-4.69,7.55-7.1,11.27-1,1.47.25,2.81.05,4.21l-.92.51c-1.13-.92-2.13-1.07-3.06.35a9.07,9.07,0,0,1-1.85,2.25,6,6,0,0,0-1.57,1.49l-.05,0c-.6.49-1,.21-1.29-.36,0-2.12,1.69-3.35,2.78-4.86.82-1.14.82-1.65-.65-2-1.78-.42-2.89-1.79-4.2-3.43-1.17,4.69-2.94,9-3.86,13.44s-.17,6,3.14,7.72c.54.53,2.12.52,1,1.92-1.56.59-2.81-.34-4.34-.91a8.6,8.6,0,0,0-.55,3.91c-.15,2-.23,4,2.69,4.06.35,0,.51.44.53.83-.58,1.18-1.76,1.39-2.84,1.76a21.34,21.34,0,0,1-4,.75c-1,0-1.51-.72-.68-1.33,2.17-1.61,1.41-3.89,1.67-5.94a20.94,20.94,0,0,0,.51-5.29,10.93,10.93,0,0,1-4.92,2.47,4.06,4.06,0,0,1-1.1,0c-3.92-.34-4-.34-3.91,3.54a57,57,0,0,1-.6,7.62,3,3,0,0,1-2.2,2.81c-.85.24-1.91.79-2.48-.18s.53-1.4,1.1-1.91a4.51,4.51,0,0,0,1.41-3.44c.08-1.82.08-3.64,0-5.48-4.1,1.61-5.07,4.28-3.3,9.79.57,1.78,0,2.4-1.63,2.49-.27,0-.35-.34-.29-.63q.09-7.9.16-15.82c.2,0,.41,0,.5.13,1.8,2.78,2.34,2.94,3.77-.07,2.1-4.39,3.09-9.11,1.5-13.95a19.66,19.66,0,0,0-2.05-5c-2.62,4.41-6.72,4.51-11,4l-.61-.48c.54-2.09,2.45-1.57,3.78-1.78,5.64-.89,6.81-3.64,5.3-9.23-1.76-6.52-6.74-7.62-12-8.8-1.2-.27-2,.54-3,1.11-3.55,2.13-7.31,3.63-11.58,3.26C275.4,485.86,274.91,484.85,274.31,484Z" transform="translate(-185.65 -164.39)"/><path class="cls-7" d="M282.49,461.08l.6,0c-3.3,6.66-11.31,8.07-18.54,3.14-.32,2.63,1.36,4.85,1.44,7.79a13.6,13.6,0,0,1-2-5.72c-.4-1.95-.9-2.9-2.92-1.49a7.31,7.31,0,0,1-2.06.65c-1.44-2.09-.89-4.31-.42-6.53,1.27.29.91,1.38,1.09,2.21.14.6,0,1.4.85,1.51s1.33-.47,1.7-1.14a5.18,5.18,0,0,0,.4-2.13,42.93,42.93,0,0,1,5.17-16.61c-1.1,1.83-2.49,3.47-3.52,5.35-.42.76-.82,1.72-2,1.43l-.06-2.09a16.42,16.42,0,0,1,4.66-6.83c3.14-3,4.13-6.48,4.14-10.71-1.31.56-2.61,1.53-4,.53a2.18,2.18,0,0,1-.92-2.84l.16-.51c3.35,1.31,5.24.46,6.59-3.12,1.51-4,3.2-7.93,4.8-11.9,2.42-6,3.59-12.19,2.47-18.68-.44-2.54-2.12-4.6-2.73-7.21-.35,1.66.45,3.4-.86,4.74a7.57,7.57,0,0,1,0-7.68c1.13-2-.29-4.25.57-6.32.26-.63-.06-1.46.58-2a3,3,0,0,1,.77,2.27,22.12,22.12,0,0,0,2.28,10.54c.1-2.43-.14-4.93.37-7.37a2.14,2.14,0,0,0-1-2.61c-1.2-.63-1.74-1.8-2.49-2.8a57.71,57.71,0,0,1,5.56-16.42c1.24,1.6.34,3.14-.24,4.61a66.49,66.49,0,0,0-2.67,7.43c-.34,1.34-.79,3.56.66,3.89s1.42-1.92,1.72-3.1a75,75,0,0,1,2.46-8.65,7.09,7.09,0,0,0-.2-6.26,1.23,1.23,0,0,1,.64-1.36c1.49.82,2.29.43,2.92-1.23a94.28,94.28,0,0,1,4.8-10.6,4.18,4.18,0,0,0,.68-3.09c3.29-4.05,5.3-8.85,7.82-13.35a4.64,4.64,0,0,1,.94-1.34c.33-.29.71-.63,1.2-.38a1.14,1.14,0,0,1,.47,1.2,4.51,4.51,0,0,1-.8,2c-1.92,3.21-3.38,6.66-5.3,9.88-.72,1.22-2,2.72-.34,4.12.9.75,2.86-.81,3.68-2.93,2.68-7,5.89-13.72,9-20.51-2.28-.68-2.28-.68-3.12,1.22-.15.33-.26.68-.43,1-.4.79-.71,2.05-1.77,1.68s-.69-1.6-.28-2.37a3.19,3.19,0,0,0-.64-3.95,1.61,1.61,0,0,1,1-1.14c1.7-.54,1.11-1.81.87-2.9a51,51,0,0,0-6.61-15.37c-.44-.86-.72-2.23-1.88-.54a.8.8,0,0,1-.7.12,2.42,2.42,0,0,1-.67-2.31c.25-1.39,1.2-1.69,2.42-1.5,3.3.5,6.45-.71,9.72-.85,1.79-.07,3.57-.44,5.37-.06,3.45-.1,5.34-2.67,7.53-4.77a1.14,1.14,0,0,1,1.37.57,2.11,2.11,0,0,1-.24,1.59c-1.71,2.87-4.91,3.64-7.46,5.33a3.33,3.33,0,0,0-.33,2.63,64.78,64.78,0,0,1,.16,15.18,3.55,3.55,0,0,0,.7,3.07c.75,1,2.08,1.36,2.6,2.57,0,.41,1.29.3.42,1.05-1.34.78-2.33-.1-3.39-.68-1.11-.87-1.78-.44-2.3.72-3.08,6.92-6.37,13.74-9.12,20.8a6.08,6.08,0,0,0,.21,4.52c1.4,2,2,2.13,3.78.71.89-.72,1.49-1.83,2.76-2,.87.57.09,1.13,0,1.69a6.86,6.86,0,0,1-3.42,3.61,3.37,3.37,0,0,1-4.13-.94c-.5-.49-.48-1.38-1.41-1.72-2,4.68-3.56,9.5-5.13,14.31a1.39,1.39,0,0,0,1.11,2c.61.16,1.27.23,1.6.89-.15.83-.84.95-1.5,1.1-2-.53-2.56,1.74-4.13,2a7.23,7.23,0,0,0-3.73-4.33,1.92,1.92,0,0,1-1.19-2.21c1.08-.82,1.91,0,2.73.5,1.62.9,2.53.45,3.06-1.27,1.44-4.61,3.28-9.1,4.83-13.6a.53.53,0,0,0-.7-.4c-1.24.44-2.28-1.58-3.35-.49-.85.88-1.07,2.3-1.66,3.43-2,3.81-3,8-4.93,11.86-1,4.27-2.82,8.27-3.7,12.57a8.15,8.15,0,0,0,0,4.84c.48,1.21,1.08,2.41,2.66,2.32s2.18-1.13,2.53-2.48a39.5,39.5,0,0,0,.65-4,21.89,21.89,0,0,1,1.68-5.76c.27-.62.6-1.53,1.52-.53a4.35,4.35,0,0,1,.13,3.21c-2.28,7.89-2.56,16-2.4,24.09,0,1.8.13,3.68-1.27,5.15-2.32-1.38-5.15-1.44-7.54-3.06-.2,2.79,0,5.4-.34,8-.36,3,.73,3.75,3.62,2.74a1,1,0,0,1,1,.11,3.78,3.78,0,0,1-1.47,4.53c-1.76-.3-3-1.58-4.47-2.52-1.19,4.69-3.61,8.91-5.36,13.4s-1.47,5.14,2.86,6.46c.61.74-.56.59-.52,1-1.49,1.49-2.79.14-4.19-.32-1.61,2.91-1,5.82-.13,8.74a6.79,6.79,0,0,0-3.45,4c-2,5.35-4.84,10.42-5.25,16.3a6.46,6.46,0,0,0,6.2,7.29,10.5,10.5,0,0,0,6.93-2C279.65,462.91,280.66,461.35,282.49,461.08Z" transform="translate(-185.65 -164.39)"/><path class="cls-8" d="M326.33,294.47c-1.17-1.16-1.22-3.08-2.73-4a1.34,1.34,0,0,1-.36-1.16c.58-1.2.89-2.69,2.73-2.53.77,1.8-.4,3.94,1,5.63.74,1.19,1.54,2.4,3.19,2s1.46-1.86,1.59-3.11c0-.18,0-.36.07-.54.23-1.43.94-3,.54-4.27-.51-1.65-2.68-.29-3.76-1.33-1-.48-1.18.4-1.57.92-.51.69-1,1-1.66.14-2.1-2.71-1.39-6-1.88-9a27.75,27.75,0,0,0-.56-3.73c-.42-6.39-.15-12.79-.16-19.18a3.11,3.11,0,0,1,1-2.73c.89,0,1.86-.21,2.51.66,3.71,4.93,8.87,8.91,9.82,15.61.27,1.87,3.49,3.54,6.23,3.54,3.8,0,4.95,1.15,3.78,5a76.8,76.8,0,0,0-3.32,15.33,4.38,4.38,0,0,0,.61,2.75,6.24,6.24,0,0,0-3.28,1c-1.56,1.4-3,.88-4.34-.33a3.06,3.06,0,0,0-1.9-1.3c-1.17,1.71.92,4.15-1.35,5.55-.7-1.35-1.19-2.68-3.37-2.25A2.44,2.44,0,0,1,326.33,294.47Z" transform="translate(-185.65 -164.39)"/><path class="cls-9" d="M203.31,424.4c-2.66-1-1-2,.11-2.64a40,40,0,0,1,9.46-3.44c7.6-2.14,15.47-3.07,23-5.5a81.93,81.93,0,0,0,33.58-20.66c2.28-2.3,3.11-2.13,4.17,1a15.35,15.35,0,0,1,1,5.86c-8.94,5.52-17.81,11.15-27.4,15.51a81.62,81.62,0,0,1-21.26,6c-7.16,1.12-14.61.69-21.39,3.92C204.29,424.63,203.76,424.43,203.31,424.4Z" transform="translate(-185.65 -164.39)"/><path class="cls-10" d="M311.56,586.09l3.37-2.13A11.91,11.91,0,0,1,326,587.81c1.38,1.51,1.86.82,2.23-.67a43.64,43.64,0,0,0,1.39-9.15c.07-2.28-1.64-4.23-4.21-5.09-.93-.32-2-.22-2.81-.94l.6-1.32c2.46-.59,3.65-.2,6.69,2.22a5.44,5.44,0,0,0-1.23-5,2.3,2.3,0,0,1-.27-2.8c.59-1.11,1.54-2,1.59-3.41a31.82,31.82,0,0,1,.59-4.08c-2.35,1.81-4.62,3.34-7.58,2.81l-1.53-1.15c2.11-1.22,4.69-1.17,6.68-2.9A7.46,7.46,0,0,0,331,551c.23-3.16.05-6.32.13-10-5.06,5.09-10.89,7.39-18,8,1.95,2.2,3.79,3.8,5.41,5.59.75.83,1.94,1.54,1.3,3a3.2,3.2,0,0,1-2.85-1c-1.31-2.28-3.52-3.72-5.2-5.75-.7,1.52-.3,3.2-1.26,4.5l-1.78,0a3.09,3.09,0,0,1,.06-2.12c.76-4,.55-4.44-3.08-6.5-1.87-1.13-3.88-2-5.84-2.95-1.51-.74-2.43-.61-2.43,1.36a26.31,26.31,0,0,1-7,17.84c-.88,1-.86,1.71.37,2.35.79.41,1.7.7,2.13,1.61l-.44,1.12c-1.78,0-3.34-.78-5-1.29-1.45-.46-1.85-1.26-1.26-2.62l.14-.56c5.68-5.15,8.84-11.41,8.48-19.22,0-.91.29-1.8.16-2.71l1.71-2.76c4.26-2.22,8.81-3.73,13.25-5.54,2.42-1,4.91-1.85,7.24-3.06a79.69,79.69,0,0,0,8.71-4.51c.66-.59-.83-2.09.92-2.22,0,1.43,1.11,1,1.93,1.11,1.56.13,3.22-.41,4.66.62.32.46.35,1.06.73,1.5,2,2.47,4.41,4.61,6.1,7.34a.78.78,0,0,1-.38.62c-1.31.32-2-.63-2.8-1.36a29.07,29.07,0,0,1-5.32-6.26,35.82,35.82,0,0,1,1.33,7.77c.29,4.32,2.58,7.5,5.81,10.14a5.66,5.66,0,0,0,2.76,1.13c2,.31,3.23-.87,2.75-2.89a13.84,13.84,0,0,0-2.87-6.14c-.56-.62-1.56-1.18-.82-2.29a1.26,1.26,0,0,1,1.52.23c3.21,4.7,4.57,10,5.07,15.57.12.51.35,1.14-.29,1.38s-.73-.37-.88-.78c-.35-.9-.16-1.95-.86-3-1.42,2.12.4,4.09-.1,6A1.2,1.2,0,0,1,344,555c-1.07-1.13-1-2.64-1.4-4.42a14.25,14.25,0,0,0-2.76,5.78c-.43.81-1,1.28-2,.83-1.08-2.34.74-3.95,1.6-5.72,1.31-2.7,1.42-2.62-1.05-4.1a16.38,16.38,0,0,1-4.76-4.58c-.47,2.1-.25,4.38-.51,6.6-.46,3.93,1.16,6.64,4.32,8.66.2.86-.29,1.24-1,1.45-1.31,0-2-1.16-3.43-1.8-.27,2.49-1.22,4.77.06,7.14a2.4,2.4,0,0,1,0,2.6,7.64,7.64,0,0,0-.92,5.07c1.46-.81,2.33-2.27,3.79-3,.84.26.86.91.77,1.61-4.27,3.58-5.09,8.56-5.5,13.69a3.2,3.2,0,0,1-.44,1.24,19,19,0,0,1,5.51-3.68c2.2-.8,2.46-2.07,1.47-4a3.53,3.53,0,0,1-.5-3.14c1.62-.57,2,.7,2.62,1.71.23,1.12.08,2.44,1.59,2.86a1.12,1.12,0,0,1,.61.87,4.53,4.53,0,0,0,.3,1.85c1.62,3.87,2.82,4.09,5.33,1A2,2,0,0,1,350,584c-1.65,2.79-4.54,4.2-6.89,6.22-.42-1.78-.61-3.59-1.92-5.1-1-1.13-1.93-1.61-3.3-1a18.91,18.91,0,0,0-9.46,9c-.87,1.68-.11,2.47,1.88,2.38,1-.05,2.12-1,2.89.41a35.19,35.19,0,0,1-8.33,2.48c-1.91.39-2.39-.21-1.26-1.85.54-.8,1.16-1.55,1.67-2.37,1-1.31.59-2.52-.23-3.75-2.5-3.75-6.16-4.43-10.27-4-2.09,1-3.31,3-5,4.44-2.25,1.86-4.22,4.19-7.39,4.59l-1.15-.6c-.06-1.23,1.08-1.3,1.76-1.77A52.41,52.41,0,0,0,311.56,586.09Z" transform="translate(-185.65 -164.39)"/><path class="cls-5" d="M276.48,486.31c2.53-.69,5.06-1.37,7.57-2.1a5.12,5.12,0,0,0,2.24-.95c2.72-2.86,5.53-1.63,8.84-1.09,4.84.8,6.79,3.56,8.25,7.61.93,2.61,1.91,5,.44,7.76a5,5,0,0,1-4.71,3.06,9.26,9.26,0,0,0-5.17,1.15c-5.33-3.92-10-8.56-14.93-13C278.14,488,277.32,487.13,276.48,486.31Z" transform="translate(-185.65 -164.39)"/><path class="cls-11" d="M363.1,477.39c-2.63,1.28-4.14,3.79-6.2,5.69-2.85,2.64-4.33,2.48-5.8-1-.54-1.25-1.14-1.46-2.3-.93s-2.17.82-3.88,1.46c4.16-7.52,6.87-15,9.5-22.51.94-.37,1.2.52,1.71.93.74.58,1.32,1.76,2.44,1.21s.83-1.67.78-2.65c.11-1.18.6-1.76,1.78-1.05a10.54,10.54,0,0,1,2.34,2.28c1.68,2,3.56,3.39,6.4,2.46,1.49-.49,2,.17,1.76,1.67-.52,3-2.34,5.29-4.26,7.51-1.06,1.23-2.57,2.08-3.14,3.73C364.33,477.05,363.51,477,363.1,477.39Z" transform="translate(-185.65 -164.39)"/><path class="cls-12" d="M323.73,251.53l.11,22.63a3.09,3.09,0,0,1,0,1.54c-1.09-.33-2.35.78-3.35-.4-1.57-5.16-.8-10.44-.52-15.65.14-2.66.42-5.14-1.2-7.44,1-.05,1.69-.24,1.66-1.55,0-1.82.44-3.68.21-5.45-1.25-9.66.44-19.34-.35-29-.76-9.3.82-18.58.05-27.88-.57-6.82.25-13.68-.34-20.51a5.47,5.47,0,0,1,.16-1.89c.23-.81.68-1.65,1.65-1.56s.78,1.12.77,1.76c-.15,13.51,1.06,27,.81,40.51-.18,9.74-.33,19.5.19,29.26C323.81,241.11,323.68,246.32,323.73,251.53Z" transform="translate(-185.65 -164.39)"/><path class="cls-13" d="M304.47,316.32c2.43.51,2.26,1.95,1.4,3.74-.35.75-1.09,1.47-.48,2.87,1.55-2.64,1.46-7.06,6.31-5-1.85,4.17-3.74,8.54-5.71,12.86a93,93,0,0,0-3.79,9.05,4.35,4.35,0,0,1-2.06,2.78c-1,.49-1.86,1.76-3.12.51a2.74,2.74,0,0,1-.34-3.52c2-3.86,4.11-7.7,6.17-11.55.41-.78,1.13-1.44.84-2.79-3.83,4.87-5,11.18-9.66,15.19l-.39.06a32,32,0,0,0-1.93-3.29c-1.37-1.56-.41-5.23,1.53-6.89,2.68-2.27,5.64-4.21,8.21-6.63-2.27,2-4.74,3.84-7.12,5.74-3.18,2.54-6.14,2.59-9.33.07a1.64,1.64,0,0,1-.38-.68c7.2-.95,10.38-6.65,14.05-11.82,1.07-1.51-.65-2.27-.7-3.45.4-2,1.83-1.33,2.95-1,1.38.4.78,1.31.34,2.05.89-.72,1.56-2.44,3-1.62S305.16,315.15,304.47,316.32Z" transform="translate(-185.65 -164.39)"/><path class="cls-14" d="M318.73,252.21c2.78.47,2.45,2.57,2.27,4.49a85.19,85.19,0,0,0,0,19c1.45,3.24.83,6.56.42,9.86-1.72,1.5-2-.35-2.28-1.19A36.33,36.33,0,0,1,316.81,274c0-1,.61-2.48-.93-2.75s-2.38,1-2.66,2.47c-1.41,2.21-.77,4.55-.57,6.9s1.14,4.67-.79,6.7c-1.4-.74-.86-2.15-1.14-3.28s-.22-2.27-.9-3.24c-1.38.27-1.36,1.72-2.11,2.5-.53.54-.77,1.8-1.92.75-.56-1.43,1-2.5.64-3.88a16.29,16.29,0,0,0-6.18,2.16s-.15-.08-.21-.14a.34.34,0,0,1,0-.47c3.64-5.1,5.68-11,8.3-16.61a2.56,2.56,0,0,1,.78-1.1c3.82-2.35,4.62-6.78,7-10.13C316.77,253,317.25,251.85,318.73,252.21Z" transform="translate(-185.65 -164.39)"/><path class="cls-15" d="M317.66,530.83c-6.8,3.11-13.62,6.19-20.88,8.11a17.68,17.68,0,0,1,4.91-6.05c1.64-.29,1.64-.29,1-1.22-.45-.66-.74-9.09-.28-9.66a1.26,1.26,0,0,1,.89-.5c1.94.2,3-1,3.89-2.55,1.69,4.79.55,10.59-2.64,13,2.46-.28,3.77-.88,3.92-3.75.18-3.27.31-6.53.36-9.8,0-1.57.38-2.26,2.07-1.52a8.4,8.4,0,0,0,4,.7c.61,2.62,3.27,2.18,4.91,3.27,0,1-.05,2,0,3,.08,1.73.1,3.37-2.21,3.81l4.4-.78c.12,1.34-1.16,1.39-1.84,2S318.15,529.74,317.66,530.83Z" transform="translate(-185.65 -164.39)"/><path class="cls-16" d="M337.75,556.94a1.6,1.6,0,0,0,1.84-.82c.9-2,2.37-2.31,4.23-1.35l1.06-.4a3.62,3.62,0,0,1,2.86.91c1.6,4.67,1.17,9.58,1.55,14.38a57.43,57.43,0,0,0,1.48,10.54c.39,1.43.38,2.7-.78,3.77h-2.8c-2.57.23-4.17-.77-5.42-3.4l-.72-.48a3.71,3.71,0,0,1-1.5-2.73,6.36,6.36,0,0,0-2.07-2.24c-1.45-.89-1.57-2.23-1.27-3.71,0-.63.21-1.29-.4-1.77-2.33-2.9-2.07-8.19.52-10.36a1.8,1.8,0,0,0,1-1.2C337,557.5,337.13,557.13,337.75,556.94Z" transform="translate(-185.65 -164.39)"/><path class="cls-17" d="M332.7,320.67a11,11,0,0,1-5.74-2.29c-1.18-.24-1.24-1.23-1.42-2.13-.13-.61-.23-1.22-.41-1.81-.29-1-.54-2,.61-2.52s1.24.94,2,1.23a12.08,12.08,0,0,0,8,2.58,7.71,7.71,0,0,0,3.41-1.53c1.12-1.25,2.35-2.24,4.19-1.82l1.72-.54.89.07a15.16,15.16,0,0,1,6.22,0,11,11,0,0,1,10.4,9.76c.51,7-2.92,11.2-9.31,11.82-1.31,1.55-3.1,1.14-4.77,1.19s-3.36-.56-5.06-.7c-1.17-.44-1.78-1-.3-1.83a16,16,0,0,1,5.78-.74c.36-.07-.09,0,.27,0,3.12-.65,6.73-.81,7.62-4.7a12.62,12.62,0,0,0-3.06-11.7,4.68,4.68,0,0,0-5.51-1.24,35.29,35.29,0,0,0-6.37,3.73,34.93,34.93,0,0,1-3.5,2.15c-.86.39-1.7.82-2.58,1.15C334.76,321,333.7,321.66,332.7,320.67Z" transform="translate(-185.65 -164.39)"/><path class="cls-15" d="M276.45,390.94c.18-2.22-.33-4.49.34-6.84,6.1,9.5,5.21,19.08,1.32,28.76-1.53,3.8-3.16,7.55-4.58,11.38a9.34,9.34,0,0,1-2.64,3.71c-2,1.82-3.5,1.47-4.71-.84,1.72-4.3,3.95-8.35,6.06-12.46a52.66,52.66,0,0,0,5.3-16.54,16.49,16.49,0,0,0-1.1-7.22Z" transform="translate(-185.65 -164.39)"/><path class="cls-18" d="M311.46,287.24c1.32-2.11.61-4.36.4-6.56-.22-2.45-1.4-5,.83-7.16.84-.08,1.14.56,1.29,1.15.94,3.6,2.33,7.16,1.44,11-.53,2.31-.36,4.71-1,7a41.63,41.63,0,0,0-12.33,1.06,7.2,7.2,0,0,1-3.48-.18,1.92,1.92,0,0,0-2.3.81c-1.22-4.93.21-9.07,3.75-12.58.89.61,1.06-.32,1.44-.71.64-.68,4.54-1.75,5.72-1.49-.84,2-2.42,3.57-3,5.78.66-.51.78-1.57,1.83-1.43,1.43-.43,1.59-1.87,2.18-2.92.43-.78.76-1.41,1.75-1.38.36,1.24-.4,2.25-.7,3.36a18.56,18.56,0,0,0-.65,2.32c-.15,1.06-.49,2.28.49,3C310.34,289.25,310.4,287,311.46,287.24Z" transform="translate(-185.65 -164.39)"/><path class="cls-19" d="M302.35,595.44c4.69-2.44,8.08-6.45,12-9.86,2,.85,3.21,2.6,4.76,3.95,2.11,1.84,4.73,2.94,6.78,4.85a22,22,0,0,1-1.79,2.55c-1.34,1.44.13,1.16.79,1.4C317,600.05,309.55,598.77,302.35,595.44Z" transform="translate(-185.65 -164.39)"/><path class="cls-5" d="M294.55,502.23c1.15-.76,2.46-.52,3.72-.57,3.5-.15,6.18-1.44,7.22-5.29,2.22,4.74,4.71,9.24,3.27,14.81-.72,2.78-.78,5.74-3,7.95-.73.75-1.27,2-2.61,1.53s-.86-1.63-1-2.59a4.8,4.8,0,0,0-.36-1c-.12-3.07.61-6.56-.61-9.11S296.58,504.46,294.55,502.23Z" transform="translate(-185.65 -164.39)"/><path class="cls-20" d="M333.19,595.85c-1.05-.65-1.92.22-2.86.39a3.35,3.35,0,0,1-3-.8c-.91-.85.05-1.7.41-2.45A19.4,19.4,0,0,1,338,583.26c1.61-.67,2.79-.57,3.57,1.15a4.37,4.37,0,0,0,.92,1.35c1.42,1.32,1.88,2.74.65,4.43A31.9,31.9,0,0,1,333.19,595.85Z" transform="translate(-185.65 -164.39)"/><path class="cls-21" d="M337.07,500.87c-1.9-2.06-1.42-3.92.16-6a54.68,54.68,0,0,0,4.94-7.81,9.07,9.07,0,0,1,6.1-4.8c1.19-.33,1.69-.12,2,1a3.17,3.17,0,0,0,3.33,2.69c-.59,1.7-2.38,2.31-3.07,3.8l0-.05c-2.55,2.3-5.38,4.29-7.72,6.84Z" transform="translate(-185.65 -164.39)"/><path class="cls-15" d="M243.38,355.83c-4.37-1.55-8.86-.46-13.29-.61,5.59-3.86,12-6,18.12-8.81a31.94,31.94,0,0,1,3-1.06c.07.12.14.24.22.36.37,2.73,1.24,3.58,3.94,3.84a14.54,14.54,0,0,1,1.62.13c.53.11,1.15.22,1.31.8s-.38,1-.84,1.26a112.94,112.94,0,0,1-10.7,4.69C245.66,356.88,244.52,356,243.38,355.83Z" transform="translate(-185.65 -164.39)"/><path class="cls-19" d="M251.24,345.35q7.23-3.27,14.45-6.51a4.06,4.06,0,0,1,1.32-.13,11,11,0,0,0,6.72,3.72c1.47.23,0,1.46-.61,1.81a78.91,78.91,0,0,1-7,3.61c-1,.43-1.94,1-2.93,1.48-3,1.37-6.14.43-9.17.22-2.08-.15-3-1.82-2.67-4Z" transform="translate(-185.65 -164.39)"/><path class="cls-22" d="M373.87,345.9a28.93,28.93,0,0,1,7.33,3.29c1.34,1.2,3.3,1.44,4.47,2.78-.07,1-.8.8-1.25.91a16,16,0,0,0-8.1,4.24c-1.14,1.19-2.37,1.64-3.88.61-2.41-1.65-4.63-3.55-7-5.3-1.27-.95-1-1.95.57-2.22,2.47-.42,4.48-1.4,5.7-3.73A1.47,1.47,0,0,1,373.87,345.9Z" transform="translate(-185.65 -164.39)"/><path class="cls-22" d="M269.33,337.49c1.78-.82,3.54-1.71,5.35-2.45,2.61-1.08,5.13-2.23,6.94-4.54a4.14,4.14,0,0,1,3-1.68l.18.19a5.85,5.85,0,0,0,3.71,2.07c.61.06,1.38,0,1.65.69s-.42,1.31-1,1.74c-3.52,2.72-7.16,5.26-10.9,7.67-2.16,1.3-4.53.92-6.86.88-1.18,0-2.45-.1-3-1.4A2.77,2.77,0,0,1,269.33,337.49Z" transform="translate(-185.65 -164.39)"/><path class="cls-22" d="M359.37,338.21l12.57,6.7c.66.95,0,1.75-.39,2.49-1.85,3.19-7.33,4.19-10.28,1.91-2-1.64-4.25-3.07-6.23-4.79s-1.72-2.26.51-3.37a3.48,3.48,0,0,0,2-2C357.84,338.32,358.31,337.58,359.37,338.21Z" transform="translate(-185.65 -164.39)"/><path class="cls-15" d="M266,427.62c1.21,3.32,1.21,3.32,5.77,1,1.19,8.5-5.23,13.14-9.63,18.81-1.62-2.16-.87-4.55-.46-6.8A42.3,42.3,0,0,1,266,427.62Z" transform="translate(-185.65 -164.39)"/><path class="cls-23" d="M357.64,419.33c-.21,1.39.65,2.43,1.18,3.57a4.32,4.32,0,0,1-.71,4.82c-1.13,1.25-2.45-.19-3.66-.74a5.75,5.75,0,0,1-3.35-4.26c-1-4-2.48-8-3.2-12.43,1.61,1,3.16,2.19,4.55.07,1.21,1.72,1,4,3,5C356.17,416.68,356.91,418,357.64,419.33Z" transform="translate(-185.65 -164.39)"/><path class="cls-24" d="M286.29,564.19c-.16,1.71,1.2,2.16,2.34,2.37a11.62,11.62,0,0,1,3.9,1.54c-2.84,6.76-1.91,13.28,1.2,19.68a5.55,5.55,0,0,1,.28,1.31c-2.46-1.68-3.85-4.17-5.06-6.79C286.28,576.53,284.8,570.58,286.29,564.19Z" transform="translate(-185.65 -164.39)"/><path class="cls-25" d="M295.07,541.7c1.14,2.7.76,5.5.28,8.22a26,26,0,0,1-5.64,11.64c-.82,1-1.62,2.3-3.28,2.07A56.58,56.58,0,0,1,295.07,541.7Z" transform="translate(-185.65 -164.39)"/><path class="cls-26" d="M359.37,338.21c-.77.06-1,.52-1.18,1.24-.45,2.09-2.27,2.38-4.18,2.87,2,2.79,5.19,4.08,7.48,6.34a.92.92,0,0,1-.8.75c-2.62-.91-4.38-3.1-6.8-4.62.44,2.91-.78,4.83-3.5,6,2.26,2.75,5.67,4.2,6.91,7.57a1.23,1.23,0,0,1-.74.87,1.12,1.12,0,0,1-1-.23c-2.14-2.77-5.46-4.43-7.19-7.59-.76-.52-1-1.76-2.2-1.68a2.89,2.89,0,0,1-2-3.2c1-1.53,1.7-.25,2.23.39,1.19,1.42,2.42,2.2,4.22,1.1s1.25-2.75.77-4.34a7.06,7.06,0,0,0-2.46-3.17c-1-.92-2.11-1.73-3.15-2.61-1.65-1.4-3.14-4.12-5.39-.66-.06.1-.34,0-.51-.09-2.36-3.44-3.43-7.36-4.26-11.37.1-.7.06-1.63.92-1.76s.93.76,1.13,1.32a11.2,11.2,0,0,0,4.61,5.57c.61.39,1.26.77,1.22,1.65l-.66.35.63.37c2.61,1.4,4.6,3.57,6.88,5.38,3.91,3.13,5.51,2.65,6.82-2C357.94,337.06,358.93,337.24,359.37,338.21Z" transform="translate(-185.65 -164.39)"/><path class="cls-27" d="M356.55,359.08l.5-.55a2.79,2.79,0,0,1,1.24.49c2.28,1.19,4.31.11,4.64-2.46.34-2.73-.74-5.08-2-7.39l.55-.51c4.13,3.11,9.31,1.25,10.45-3.75l1.93,1a1.27,1.27,0,0,0-1.38.67c-1.38,3.17-4,4.24-7.78,4.38,3.11,2.36,5.83,4.41,8.53,6.49,1.25,1,2.13.05,2.84-.68,2.52-2.56,5.66-3.8,9.34-4.51-1.32-1.36-3.38-1.41-4.22-3.05,2.34,1,4.94,1.49,6.59,3.7-6,0-10.34,3.26-14.26,7.32-2.37-1-3.53-3.35-5.62-4.64-.84-.52-1.5-1.3-2.45-1.87-.57.83,0,1.59,0,2.32.08,2.17-.48,4-2.56,5-1.37.65-1.73,1.39-.89,2.73.54.86.4,1.57-.58,2.28a2.84,2.84,0,0,0-.81,4.07c.54,1,1.32,2.06.34,3.25l-5.07-8.08.14-.2c.76-.45,1.67.83,2.25-.05s0-1.91-.32-2.86S356.17,360.49,356.55,359.08Z" transform="translate(-185.65 -164.39)"/><path class="cls-15" d="M262.22,449.56l5.49-7.71c.35-.49.58-1.13,1.53-1.18-1.47,4-3.52,7.61-4.59,11.63a30.18,30.18,0,0,0-1.32,8,2.86,2.86,0,0,1-1.37,2.77,2.7,2.7,0,0,1-2.3.61c-1.06-.38-.67-1.36-.75-2.12s.24-1.83-.35-2.66A37.23,37.23,0,0,1,262.22,449.56Z" transform="translate(-185.65 -164.39)"/><path class="cls-13" d="M297,296.64a.45.45,0,0,1,.32-.07c.2,1.18.25,2.18,1.71,2.93,1.93,1,2,3.58,3.16,5.31a18.89,18.89,0,0,1,2,4.5c.72,2.11-.56,3.61-2.8,3.42-2.57-.22-4.5-1.24-5.16-4-.41-1.68-.85-3.36-1.38-5a21.84,21.84,0,0,1-.64-2.31C294.47,299.45,295.83,298.12,297,296.64Z" transform="translate(-185.65 -164.39)"/><path class="cls-28" d="M269.33,337.49c-1,3.54-.69,3.94,2.91,4.08a18.43,18.43,0,0,0,6.38-1.16.46.46,0,0,1,.66-.06c.28,1.28-.9,1.65-1.48,2.39-.7.91-2,1.8-1.11,3.05a2.5,2.5,0,0,0,3.43.62c1.86-.73,3.17-2.87,5.58-2.22.42,1.49-.89,1.75-1.7,2.33a9.41,9.41,0,0,0-2.88,2.41c-.29.46-.61,1-.25,1.5s1,.13,1.43-.11a29.71,29.71,0,0,0,4.05-2.7c.88-.4,1.88-1.25,2.72-.47s.14,1.9-.27,2.75a22.32,22.32,0,0,1-3,5.35,1.24,1.24,0,0,0-.51,1.11c-.29.78-.46,1.75-1.69,1.1l3.4-7.79c-3.87,1.74-6.74,4.23-10,6.1a.36.36,0,0,1-.61,0c-.13-1.06.73-1.5,1.3-2.16,1.24-1.47.79-2.73-1.12-3.27-.53-1.35.87-1.48,1.46-2.27a2,2,0,0,1-2.12.43c-1.49-.49-2.08-1.67-2.35-3.26-3.32,1.17-6,3.52-9.45,4.2a1,1,0,0,1-.78-.79l10.47-5.58c-3.19-.12-6-.59-6.76-4.36A4.33,4.33,0,0,1,269.33,337.49Z" transform="translate(-185.65 -164.39)"/><path class="cls-29" d="M357.1,336.67a2.85,2.85,0,0,1-1.27,4.11c-1.64,1-3.09,1.06-4.64-.43-2.53-2.42-5.59-4.26-7.79-7.05,3.29.22,6.57.86,9.87.19C354,335.2,356,335.38,357.1,336.67Z" transform="translate(-185.65 -164.39)"/><path class="cls-30" d="M364.23,476.2c0-1.71,1.48-2.41,2.39-3.47,2.25-2.63,4.28-5.35,4.87-9.37-4.89,2.7-7.32-.61-10-3.44-.34-.36-1.17-2.57-1.61,0l-.45.09c-1.16-.88-.85-2.18-1-3.36.4-2.2-1.35-4.34-.14-6.55l.47,0c1.71.54,1.64,2.16,1.63,3.36-.06,4,2.8,5.91,5.27,8.12a2.84,2.84,0,0,0,4.73-2.91c-1-5.12-2.57-10-5.71-14.31-.54-.74-1.59-1.35-1-2.56l.39-.45c5,5,7,11.46,8.23,18a13.42,13.42,0,0,1-4.3,12.91C366.68,473.5,365.49,474.89,364.23,476.2Z" transform="translate(-185.65 -164.39)"/><path class="cls-18" d="M295.12,303.14c1.06,1.73,1.24,3.73,1.64,5.64.53,2.6,2.53,3.21,4.58,3.54,1.79.28,2.82-1.3,2.08-3-1.25-2.8-2.58-5.56-3.89-8.33a2.72,2.72,0,0,0-3.33-1.67c-.14-1.29,1.37-1.67,1.08-2.79.75-.53-.45-2,.93-2.13,1.59-.2,1.28,1.37,1.83,2.14-.51,1.09.19,1.92.63,2.79a72.72,72.72,0,0,1,5,11.45c.48,1.62,1.19,3.31-.11,4.92l-1.09.58c0-.54,0-1.08,0-1.62s.18-1.17-.49-1.39-1,.34-1.32.74c-.77,1-1.46,2-2.45,3.45-1.07-2.63.95-2.94,1.13-4.32-1.15,0-2.3-.93-3.34.37a8,8,0,0,1-1.75-3.66C295.8,307.65,294.14,305.61,295.12,303.14Z" transform="translate(-185.65 -164.39)"/><path class="cls-31" d="M197.3,390.75c2.85-.47,5.31-2.22,8.32-2.35,2.13-.1,3,.39,3.5,2.61,1,4.31-.18,8.52-.16,12.77,0,7.23,3,7.28,8.5,6.64a58.93,58.93,0,0,0,6.36-1.44c.58-.25.65,0,.54.51-4.11.89-8,2.94-12.48,1.76-2.21-.59-3.19-1.62-3.52-4.07a61.14,61.14,0,0,1,.06-12.76c.34-4.82-1.29-5.07-5.69-4.43-2.49.36-4.23,2.5-6.65,3.07A4.24,4.24,0,0,1,197.3,390.75Z" transform="translate(-185.65 -164.39)"/><path class="cls-25" d="M311.56,586.09c-.83,3-3.8,4-5.81,5.87a28.27,28.27,0,0,1-4.55,2.88c-1.41-.65-2.93-1.16-3.76-2.64C301.34,588.3,307.37,589.32,311.56,586.09Z" transform="translate(-185.65 -164.39)"/><path class="cls-15" d="M326.9,523.61c-.61.66-.61,1.09.28,1.62,1.17.68,0,.77-.39,1-.63-.43-1.57.38-2.09-.52-.07-.06-.13-.16-.2-.17-3.76-.56-3.76-.56-3.47-4.79a1.8,1.8,0,0,1,1.44-.59,3.42,3.42,0,0,0,3.83-2.5l-1-1.14c1.31-2.78.68-5.87,1.42-8.74.3-1.16.17-2.61,1.86-2.87.22.46.66.49,1.08.57-1.54,1-1.36,2.67-1.51,4.1C327.6,514.25,327.29,518.94,326.9,523.61Z" transform="translate(-185.65 -164.39)"/><path class="cls-32" d="M347.74,555.28a2.84,2.84,0,0,1-2.86-.91c-.29-1.6-.59-3.21-.88-4.81-.23-1.25.27-2.46,1.4-2.57s1,1.41,1.28,2.23c.19.48-.06,1.12.11,1.62.55,1.57.27-.51.57-.14A10.92,10.92,0,0,1,347.74,555.28Z" transform="translate(-185.65 -164.39)"/><path class="cls-33" d="M340.1,534.88V534c-1.68-2.86-3.54-5.55-6.59-7.14-.83-.5-.32-1,0-1.55,4.69,1.68,6.88,5.62,8.81,9.79h-2.09Z" transform="translate(-185.65 -164.39)"/><path class="cls-34" d="M375.65,413.41c4.84.77,9.22,3.17,14.05,4,1.78.29,3.55.66,5.32,1l0,.38C388.16,418.35,381.84,416.11,375.65,413.41Z" transform="translate(-185.65 -164.39)"/><path class="cls-21" d="M330.59,503.9c.76-1,1.57-1.95,2.28-3,1.44-2.13,2.52-2,3.29.46a1.27,1.27,0,0,1-1.33.82C333.32,502.52,332.46,504.47,330.59,503.9Z" transform="translate(-185.65 -164.39)"/><path class="cls-35" d="M342.84,496.48c2-3,4.75-5,7.72-6.84A34.25,34.25,0,0,1,342.84,496.48Z" transform="translate(-185.65 -164.39)"/><path class="cls-36" d="M395,418.76c0-.13,0-.25,0-.38,3.28,0,6.57-.12,9.85-.11.94,0,2.05-.33,2.72.76Z" transform="translate(-185.65 -164.39)"/><path class="cls-7" d="M276.44,390.89c1.38,2.25,2.23,4.59,1.1,7.22l-.49-.14C277.36,395.56,276.44,393.27,276.44,390.89Z" transform="translate(-185.65 -164.39)"/><path class="cls-37" d="M295.12,303.14c-.23,2.34,1.09,4.44,1.1,6.75-1.34-2.67-2.55-5.37-2.07-8.48Z" transform="translate(-185.65 -164.39)"/><path class="cls-15" d="M330.59,503.9c1.62,0,2.54-1.83,4.24-1.71a19.39,19.39,0,0,1-5.16,3.28A1.64,1.64,0,0,1,330.59,503.9Z" transform="translate(-185.65 -164.39)"/><path class="cls-38" d="M352.19,311.91H346A7.78,7.78,0,0,1,352.19,311.91Z" transform="translate(-185.65 -164.39)"/><path class="cls-3" d="M369.26,368c9.36,6.72,19.93,11.33,29.85,17.06a41.18,41.18,0,0,1,13,11.91c1.88,2.64,2.82,5.53,1.41,8.75-.37.92-1.22,1-2,1.08a49.54,49.54,0,0,1-24.18-5c-6-2.88-11.72-6.28-16.17-11.4l-3.05-3.49a3.4,3.4,0,0,1-1.19-2.08c-.4-5-.75-10.09.86-15A2.67,2.67,0,0,1,369.26,368Z" transform="translate(-185.65 -164.39)"/><path class="cls-39" d="M369.26,368a33.86,33.86,0,0,0-1.15,18.94,1.84,1.84,0,0,1-.1.53c-.34.68-.49.09-.6-.13-1.17-2.23-2.39-4.44-3.44-6.72s-2-4.81-3-7.22a13.21,13.21,0,0,0-.53-2.08c-1.36-3.13-1.31-3.06,1.27-6,.67-.76-.48-1.56-.94-2.28s-1.36-1,.05-1.8c4.34-2.42,4.29-2.49,3.49-7.39a14.35,14.35,0,0,1,0-1.8c3.61,2.49,6.83,4.88,9.25,8.21A27.71,27.71,0,0,0,369.26,368Z" transform="translate(-185.65 -164.39)"/><path class="cls-40" d="M387.33,401.78c7.46,2.65,15,4.85,23.06,4.49,1.08,0,2.2.12,3.14-.6,3.1-1,3.93-3.48,4-6.67,1.53,5.53-2,7.84-6.17,8.26-8.44.86-16.29-1.76-24-4.84C387.05,402.3,387.1,402,387.33,401.78Z" transform="translate(-185.65 -164.39)"/><path class="cls-41" d="M276.36,355.73l.61,0a110.07,110.07,0,0,0-9,8.7,28.15,28.15,0,0,0-6.07,10.82,68.84,68.84,0,0,1-3.06,7.28c-.56.13-.78-.25-1-.65-.2-5.19-1.1-10.2-3.75-14.76a1.84,1.84,0,0,1-.06-1.07l-1.76-3.16c1.58-.37,2,1,2.79,1.82,1.89,3.24,2.3,3.31,4.63.28,1.55-2,3.49-3.64,5.21-5.64-1.4-.37-2.72.05-3.91-.53-2.41-1.47-3.29-3.53-2.18-6.48-3,1.16-5.62,2.41-8.31,3.48-1.87.74-1.78,1.6-.51,3,1.06,1.15,3.13,1.87,2.31,4.11-2.79-2.62-5.44-5.42-9-7.13,5.61.4,9.65-3.47,14.5-5.12-6.5-.88-7.81-1.88-6.56-5.17.54,3.22,2.63,4,5.58,3.71,2.13-.2,4.31.16,6.4-.6l.57.51c-.21,1.07-1.24,1.52-1.75,2.37-.79,1.32-1.8,2.72-.74,4.24a3.27,3.27,0,0,0,4.1,1.16,9.31,9.31,0,0,0,4.82-2.77c.71-.74,1.42-1.71,2.73-1.24.68,1.63-.83,2.19-1.57,3.07-1.38,1.63-3.26,2.87-3.88,5.48,1.59-.28,2.14-1.52,3.08-2.19C272.5,358,273.65,355.61,276.36,355.73Z" transform="translate(-185.65 -164.39)"/><path class="cls-42" d="M283.56,357.46c.84.05,1.11-.75,1.69-1.1,1.62,1.71,1.6,3.47.82,5.71-1.35,3.82-2.19,7.83-3.29,11.74-.28,1-.36,2.37-1.9,2.21s-1.51-1.51-1.68-2.68c-.49-3.47,1.47-6.28,2.51-9.31.62-1.8,1.49-3.51,1.39-5.48Z" transform="translate(-185.65 -164.39)"/><path class="cls-43" d="M258.29,382l.57.54c-7.85,13.64-20,21.81-34.5,26.92l-.54-.51,1.66-1.12c2.62-1.64,5.58-2.59,8.3-4.07,9.08-5,17.13-11,22.55-20.07C256.78,383,257.19,382.07,258.29,382Z" transform="translate(-185.65 -164.39)"/><path class="cls-3" d="M258.29,382c-6.76,11.75-17,19.42-29.2,24.77a7.51,7.51,0,0,1-3.61,1.06c-3.85-4.52-3.57-9.15,1-14.31a80.53,80.53,0,0,1,10.9-10.31c5.07-3.94,9-9,13.27-13.67a20.23,20.23,0,0,1,3.44-3.48C257.62,370.83,258.75,376.22,258.29,382Z" transform="translate(-185.65 -164.39)"/><path class="cls-44" d="M319.89,557.56c-2-3.53-5.34-5.9-8.15-9.08,3.81-.71,7.52-.92,10.95-2.37s6-4,9.19-6.66c-.25,5,.24,9.51-.48,14-.37,2.31-4.54,5.33-7.74,5.74a20,20,0,0,1-2.19,0Z" transform="translate(-185.65 -164.39)"/><path class="cls-45" d="M293,567a4.23,4.23,0,0,1-.8-.18c-4.3-1.8-4.15-1.68-1.33-5.23a25.48,25.48,0,0,0,6-16.58c-.06-3.08.33-3.31,3.05-2,2.13,1,4.21,2.12,6.32,3.19.53,3.27.7,6.53-.56,9.7C299.81,557.76,295.93,561.85,293,567Z" transform="translate(-185.65 -164.39)"/><path class="cls-46" d="M306.05,563.56c4.12-2.35,8.4-2.41,12.84-1,2.07.66,2.32,2.06,1.9,3.82A17,17,0,0,1,311.74,578a1.8,1.8,0,0,1-2.28-1,29.07,29.07,0,0,1-3.91-12.26A2,2,0,0,1,306.05,563.56Z" transform="translate(-185.65 -164.39)"/><path class="cls-44" d="M322.61,572c5.25-.33,8.11,2.49,7.66,7.6a34.46,34.46,0,0,1-2.43,10.81c-1.07.07-1.24-.8-1.67-1.33a11.67,11.67,0,0,0-9.23-4.58c-.69,0-1.49.26-2-.5A37.86,37.86,0,0,0,322.61,572Z" transform="translate(-185.65 -164.39)"/><path class="cls-47" d="M306.05,563.56a38.49,38.49,0,0,0,3.5,12.26c.44.94.85,2.09,2.19,2.21a10,10,0,0,1-7.29,1.5c-4.11-.47-6.32-5.24-4.64-9.93A9.66,9.66,0,0,1,306.05,563.56Z" transform="translate(-185.65 -164.39)"/><path class="cls-23" d="M323,560.38a18,18,0,0,0,8.19-4c-.6,3,.63,6.43-2.24,8.84a1.3,1.3,0,0,0,0,2c2.91,1.86,1.51,4.61,1.92,7.82a10.91,10.91,0,0,0-7.62-4.33c.43-1.84.91-3.68,1.27-5.53A5.11,5.11,0,0,0,323,560.38Z" transform="translate(-185.65 -164.39)"/><path class="cls-23" d="M305.61,555.87c0-3.25-.38-6.51.56-9.7,4.52,2.54,5,4.18,2.63,9.22Z" transform="translate(-185.65 -164.39)"/><path class="cls-48" d="M310.58,555.34c-.53-1.86.51-3.56.5-5.85,2.29,2.26,4.31,4.24,6.3,6.26.29.3.06.67-.34.84A11.66,11.66,0,0,0,310.58,555.34Z" transform="translate(-185.65 -164.39)"/><path class="cls-49" d="M358.35,450.13c.39,2.2,1,4.37.88,6.65-1.26.1-1.72-.91-2.19-1.73a20,20,0,0,0-7.48-7.3,1.26,1.26,0,0,1-.31-1.45c.94-.84,1.89-.06,3,0-1.73-4.22-4.77-7.58-6.56-11.64a35,35,0,0,0-4.28-6.95c-5.5-7.72-8.38-16.5-10.87-25.48-.91-3.26-1.77-6.49-1.58-9.92a7.48,7.48,0,0,1,2.1-5.18c2.44-2.39,4.68-2.12,6.69.86-.93,5.91,1,11.34,2.81,16.77a172.18,172.18,0,0,0,11.18,26.63c1.23,2.31,1.71,5,3.25,7.13l1,1.72,0,0C356.26,443.66,357.68,446.8,358.35,450.13Z" transform="translate(-185.65 -164.39)"/><path class="cls-1" d="M310,356.88c.41-3.51.83-7,1.24-10.53,3.71-1.41,7.53-.66,11.32-.54a2.21,2.21,0,0,1,.86.51c.28,4.43,1,8.84.84,13.3.39,1.18.86,2.35.34,3.62-.85,1.06-2,.55-3,.51-4.4-.21-5.8.84-6.8,5.14a10.55,10.55,0,0,1-.92,3.1c-1.12,1.13-2,2.94-4.09,1.67C311,368.08,309.05,362.46,310,356.88Z" transform="translate(-185.65 -164.39)"/><path class="cls-3" d="M340.07,366.34c2.09-.8,2.81,0,3.38,2.14,2.41,9.08,2.13,18.33,2.09,27.58,0,.29-.31.59-.48.88a1.52,1.52,0,0,1-1-.61c-2.46-3.82-4.66-7.85-8.45-10.62a2.13,2.13,0,0,1-.54-.95,49.92,49.92,0,0,1-1-16.57c.12-1.25.64-1.76,1.91-1.72A16.49,16.49,0,0,0,340.07,366.34Z" transform="translate(-185.65 -164.39)"/><path class="cls-1" d="M340.07,366.34a3.89,3.89,0,0,1-.46.29c-1.54.63-4-.83-4.63.94-.46,1.28-.2,3.16-.31,4.77-.3,4.39.67,8.67,1.12,13a7.52,7.52,0,0,0-6,3.58c-.84,1.35-1.75.17-2.31-.59a16.34,16.34,0,0,1-3.41-9.09c-.17-5.62-.58-11.27.39-16.88.08-.5-.09-1.17.8-1C329.39,365.45,334.39,366.9,340.07,366.34Z" transform="translate(-185.65 -164.39)"/><path class="cls-9" d="M344.78,396.4l.28.54c1.25,4.29.93,8.79,1.87,13.14A254.61,254.61,0,0,0,354.22,436c.28.86.5,1.74.75,2.61-.47.43-.58,0-.74-.32-7.05-13.57-13.32-27.46-17.07-42.35a13.16,13.16,0,0,1,.19-7.78c2.13,0,2.58,2,3.67,3.12C342.47,392.78,343.28,394.85,344.78,396.4Z" transform="translate(-185.65 -164.39)"/><path class="cls-22" d="M332.43,349.81c-3.57,1.12-4.58.65-7.45-3.28-.33-.44-.81-2.34-1.6-.2l-.25.05c-1.11-1.11-1.08-2.63-1.42-4-.79-3.35-1.45-6.73-2.18-10.09-.24-1.12-.71-2.3.32-3.32,1.18-1.37,0-2.6-.33-3.82-.42-1.52-.18-2.35,1.55-2.23a8.92,8.92,0,0,0,4.72-1.13,3.52,3.52,0,0,1,1.19,2.39c1.59,7.33,3.59,14.55,5.25,21.86A7.18,7.18,0,0,1,332.43,349.81Z" transform="translate(-185.65 -164.39)"/><path class="cls-11" d="M363.71,441.8c4.06,4.65,6.13,10.2,7.41,16.14.44,2,.56,3.86-1.54,5-1.91,1-3.51.19-4.93-1.13-2.61-2.42-5.31-4.74-5-8.87.07-.91-.55-1.87-.85-2.81-.41-2.82-1.09-5.56.24-8.43s1.47-3.05,3.69-.8Z" transform="translate(-185.65 -164.39)"/><path class="cls-44" d="M349.71,357.54A35.08,35.08,0,0,1,354,373.07c.14,2.68-1.56,5.23-3.58,7.16-1.26,1.2-3.9.22-4.3-1.67-.84-4-1.33-8.08-2.53-12-.24-.79.21-1.19.8-1.54C347.18,363.39,348.73,360.88,349.71,357.54Z" transform="translate(-185.65 -164.39)"/><path class="cls-21" d="M315.45,317.86a6.4,6.4,0,0,0,3.1,1.28c-3.4,6.64-5.4,13.74-7,21a29,29,0,0,1-1,3.06,39.94,39.94,0,0,1-2.72,2.94c-1.9,1.72-3.23,1.3-4.34-1.26-.14-3.14,1.58-5.73,2.63-8.5a143.52,143.52,0,0,1,6.82-16.06C313.45,319.23,313.76,317.8,315.45,317.86Z" transform="translate(-185.65 -164.39)"/><path class="cls-50" d="M323.58,289.52c0,.31,0,.63,0,.94-3.81,6.91-5.06,13.76.42,20.48.28.34.73.72.18,1.12-2.36,1.68-3.35,4.72-6.07,6a5.24,5.24,0,0,1-2.79-1.76,3.41,3.41,0,0,1,0-2.66c1.6-5.26.93-10.46-.27-15.67-.32-1.38-1.11-2.76-.26-4.22,2.71-1.18,5.47-2.28,7.23-4.86C322.87,288.25,323.27,288.77,323.58,289.52Z" transform="translate(-185.65 -164.39)"/><path class="cls-21" d="M336.27,325.61c.55,4.08,2.45,7.7,3.89,11.47,1.71,1.95,3.12,4,1.66,6.7-.19,1-.29,2.15-1.65,2.1a3.43,3.43,0,0,1-3.37-2.29c-.7-2-1.29-4-1.91-5.95-1.72-5.42-3.21-10.92-5.76-16,1.28-.66,2.65.12,3.57-.93l2.84-.44c1.13.82,1,2,.78,3.12C336.15,324.12,335.71,324.85,336.27,325.61Z" transform="translate(-185.65 -164.39)"/><path class="cls-51" d="M326.33,294.47c1.42,2.3,3.36,2.59,5.89,1.18.1,1.38.19,2.51.27,3.63.43,4.66-2.37,7.63-5.43,10.48-1.22,1.14-2.34,1-3.2-.27a12.35,12.35,0,0,1-2.12-10.38C322.3,297.09,324.39,295.63,326.33,294.47Z" transform="translate(-185.65 -164.39)"/><path class="cls-52" d="M310,356.88c.59,5.71,1.94,11.43,0,17.14.31,1-.29,1.83-.5,2.74-1.76,4.27-4.66,7.81-7.42,11.43a7.23,7.23,0,0,0-1.7,5.83c.45,2.61.43,5.26.67,7.88-.25,11.34-1.25,22.58-4.29,33.57-1.17,4.22-2.7,8.32-4.09,12.81,1.77-1,3.11-2.27,4.86-2.74.53-.15,1.17-.23,1.45.36a1,1,0,0,1-.46,1.2c-3.15,2.2-5.91,4.85-8.83,7.32-1.18,1-2.21.09-3-.88-2.05-2.45-4-5-6.15-7.34-.6-.66-1.09-1.9-2.41-1a5.86,5.86,0,0,1-.06-4.43,71,71,0,0,1,8.8,9.22c1.69,2,1.73,1.94,2.77-.7,2.1-6.69,4.85-13.17,6.26-20.09a114.41,114.41,0,0,0,2.26-19.24c.16-4.8,1.08-9.61.1-14.44-.23-1.12-.13-2.27-1.77-2.08a1,1,0,0,1-.91-.77c2.4-3.75,5.54-6.95,8.1-10.6,3.56-5.09,5.84-10.54,5.41-16.82a51.61,51.61,0,0,1-.34-6.81,2.72,2.72,0,0,1,.37-1.22l.32-.3Z" transform="translate(-185.65 -164.39)"/><path class="cls-11" d="M354.1,377.07c.52,7.78-1.21,15.09-3.61,22.29-.24.71-.5,1.52-1.44,1.31a3,3,0,0,1-2.41-2.66c-.16-1.54,0-3.11-.06-4.66-.14-3.64.33-7.3-.26-10.93-.09-.52-.09-1.44.59-1.18C351,382.81,352.45,379.92,354.1,377.07Z" transform="translate(-185.65 -164.39)"/><path class="cls-44" d="M303.31,347.1c1.61,1.64,3.19,1.35,4.76-.06l2.4-2.17q-.54,6-1.09,12h0c-.72,1.78-2.48,2.55-3.72,3.82a9.84,9.84,0,0,1-4.15,1.87c-.64,0-1.24.27-1.88.25-1.73,0-2.5-.78-2-2.57,1.08-4,2.47-8,3.92-11.88C301.8,347.63,302.23,346.83,303.31,347.1Z" transform="translate(-185.65 -164.39)"/><path class="cls-44" d="M344.46,346.48a7.65,7.65,0,0,0,1.69,3.27,9.25,9.25,0,0,0,1.5,3.19,7.78,7.78,0,0,1-2.7,10.45c-1.18.78-1.83.88-2.31-.72-1.44-4.89-3-9.74-4.5-14.61-.39-1.25-.12-1.7,1.29-1.23,1.61.53,2.63-.22,3-1.86.09-.48.31-.91.86-.71C344.33,344.62,344.2,345.67,344.46,346.48Z" transform="translate(-185.65 -164.39)"/><path class="cls-23" d="M332.43,349.81c-2.38-9.31-4.88-18.59-6.64-28,1.13-1.23,1.85-1,2.54.5a156.77,156.77,0,0,1,7.54,22C336.5,346.46,334.82,348.7,332.43,349.81Z" transform="translate(-185.65 -164.39)"/><path class="cls-22" d="M334.72,365.59c-1.05-.53-2.24-.5-3.31-1.13-6.37-3.72-7.76-7-6.32-15.69,2,2.65,4.59,2.9,7.37,2.65a2.17,2.17,0,0,1,1.27,1.66,61.9,61.9,0,0,1,1.62,10.48A2.54,2.54,0,0,1,334.72,365.59Z" transform="translate(-185.65 -164.39)"/><path class="cls-11" d="M334.72,365.59a74.59,74.59,0,0,0-2.26-14.17c1.76-1.18,2.93-2.9,4.31-5.08,1.79,6,3.41,11.66,5.15,17.24.35,1.15-.09,1.4-1,1.7C338.87,366,336.79,365.64,334.72,365.59Z" transform="translate(-185.65 -164.39)"/><path class="cls-15" d="M344.46,346.48c-1,0-.26-2.47-2-1.51l-.61-1.19c.49-2.49-1.26-4.43-1.66-6.7,2.19-3.32,2.17-3.29,5.2-.45a33.32,33.32,0,0,0,4.35,3.71,6.19,6.19,0,0,1,2.5,3.7c.58,1.86.91,3.46-1.22,4.7-2.35,1.36-3.89.54-5.27-1.39C345.42,346.93,345.47,345.9,344.46,346.48Z" transform="translate(-185.65 -164.39)"/><path class="cls-44" d="M356,440.28c-.47-4.35-2.52-8.3-3.32-12.78,1.69.63,3.14,1.52,4.66,1.66,2.07.19,1.91-2.08,2.8-3.36,2.34,4.23,2.68,8.8,2.94,13.41-1.4.22-2.63-2.43-3.79,0-.62,1.29-1,2.67-1.6,4.14-1.09-.92-.69-2.4-1.71-3.1Z" transform="translate(-185.65 -164.39)"/><path class="cls-53" d="M344.78,396.4c-2-.95-2.49-3.19-3.86-4.68-1.15-1.25-2-2.78-3.57-3.61-3-2.84-5.85-2.23-7.18,1.66-1.14,3.32-.51,6.67.38,9.91,1.94,7.09,3.9,14.19,7.3,20.76a129.57,129.57,0,0,0,8,12.64c.38.55,1.26,1,.26,1.76-1.23,0-1.54-1.13-2.14-1.87-2.66-3.19-4.45-7-7.09-10.19-1.59-1.65-1.35-4.2-2.9-5.87a63.88,63.88,0,0,1-2.12-7.16,7.12,7.12,0,0,0-.63-2c-1.26-4.25-2.79-8.44-2.87-12.95a12.45,12.45,0,0,0-.1-3.05,30,30,0,0,1-5.38-20c0-.46,0-.92.06-1.38.59-2.25-.06-4.72,1.24-6.84,0-1.3.05-2.6.08-3.9l1.06,1.72c-.6.47-.52,1.14-.5,1.77.21,6.19-.72,12.42.55,18.56a17.53,17.53,0,0,0,3.78,7.61,6,6,0,0,1,6.68-3.94C340.05,388,342.41,392.2,344.78,396.4Z" transform="translate(-185.65 -164.39)"/><path class="cls-50" d="M335.74,295a8.64,8.64,0,0,0,4.34.33c1.62,1,.45,2.45.49,3.63a19.18,19.18,0,0,1-2.39,10.47c-1.12,2-2.54,2-4.3,1.91a2.52,2.52,0,0,1-2.3-1.24c-.48-1,.53-1.44,1.05-2a11.31,11.31,0,0,0,3.1-8.74C335.67,298,335.74,296.48,335.74,295Z" transform="translate(-185.65 -164.39)"/><path class="cls-54" d="M343.36,312.38l-4.19,1.82c1.31-4,3.46-7.73,4.15-12a1.82,1.82,0,0,1,1.6-1.64c.92,0,1.34.79,1.75,1.51,1,1.77,1.36,3.52.06,5.33C345.57,309.06,344.48,310.73,343.36,312.38Z" transform="translate(-185.65 -164.39)"/><path class="cls-22" d="M356.55,359.08c.73,1.31,2.19,2.12,2.44,3.79.19,1.24.86,2.65-.34,3.49s-1.67-1-2.63-1.29c-.72-2.3-2.52-3.87-3.89-5.73a19.22,19.22,0,0,1-3.78-7.91A77,77,0,0,1,356.55,359.08Z" transform="translate(-185.65 -164.39)"/><path class="cls-23" d="M346.57,400.79c3.21,1.15,5.83,5,5.4,7.91a2.11,2.11,0,0,1-1.19,1.74c-.72.28-1.13-.39-1.61-.78C346.22,407.31,347.1,403.91,346.57,400.79Z" transform="translate(-185.65 -164.39)"/><path class="cls-55" d="M335.76,315.73c-3.52,1.37-5.23.82-8-2.58,1.28-1.7,2.66-2.87,4.77-1.14a1.46,1.46,0,0,0,1,.35C336.37,312.08,336.53,313.58,335.76,315.73Z" transform="translate(-185.65 -164.39)"/><path class="cls-22" d="M318.82,328.48a4.55,4.55,0,0,1-2.26,1.56c-1.37-2.09.22-3.85.72-5.7.24-.9.94-.69,1.31.11C319.18,325.75,318.82,327.13,318.82,328.48Z" transform="translate(-185.65 -164.39)"/><path class="cls-56" d="M325.54,316.25l1.42,2.13c-.1.95-.49,2.07-1.48,1.77-.74-.21-.93-1.49-.64-2.43A11,11,0,0,1,325.54,316.25Z" transform="translate(-185.65 -164.39)"/><path class="cls-1" d="M278.07,445.16c.05-.54.11-1.08.18-1.87,2.91,1.72,4.59,4.45,6.55,6.79,3.82,4.54,3.69,4.62,7.95.52a27.51,27.51,0,0,1,3-2.38,29.45,29.45,0,0,0,2.83-2.09c-2.8.27-4.5,2.75-7.4,3.83.78-2.23,1.42-4.08,2.07-5.92a116.63,116.63,0,0,0,6.39-30.25c.23-3.17.41-6.33.45-9.51a3.84,3.84,0,0,1,.59-2.34c.82-2.61,3.14-3.49,5.29-4.54.6-.29,1,.16,1.23.7.25,6.27,1.14,12.48.63,18.82-.5,6.18-.78,12.37-1.33,18.55-.14,1.6-.82,3.2-.26,4.83.37,1.9-.56,3.42-1.46,4.94-3.53,1.55-3.56,4.78-3.79,7.92a2.76,2.76,0,0,1-.07.76c-1.3,1.71-2.46,3.57-4.69,4.25-1.07.68-2.14,1.37-3.22,2-4.5,2.74-8.25,1.82-11.14-2.69A26.36,26.36,0,0,1,278.07,445.16Z" transform="translate(-185.65 -164.39)"/><path class="cls-11" d="M300.69,465c3.19-.08,6.4,0,9.57-.27,6.9-.62,12.66-3.82,17.78-8.3.75-.66,1.49-1.35,2.24-2,.12-.11.33-.12.52-.19v8c-.12,2.87-2.66,4.7-3.2,7.41-.11.52-.76.37-1.18.19a1.31,1.31,0,0,1-.73-1.6c.32-2,1.29-3.78,1.84-5.7-.62,2.43-2.64,4.49-1.76,7.31.28.87-.41.81-.94.86-1.16.11-1.74-.47-1.7-1.58.08-1.85,1.08-3.47,1.51-5.86-.7,1.69-1.06,2.88-1.45,4.07-.61,1.87-.88,3.54,2,3.41a1.1,1.1,0,0,1,1.22.87c.13.66-.45.92-.93,1.18a2.15,2.15,0,0,1-1,.35c-3-.21-3.34,1.43-2.5,4.28-.18-.38-.21-.48-.15-.74.25-1.1-1-3,.92-3.14s.9,1.88,1.13,3a13.21,13.21,0,0,1,.05,1.47,4.68,4.68,0,0,0,.15-1.83c.12-1.82.82-3.47,2.73-3.52s2.36,1.62,2.45,3.28c-.17.61-.4,1.21-.51,1.83-1.08,5.87-2,6.87-8.1,7.4a47,47,0,0,1-15.06-1.52c-.44-.32-1-.58-1.15-1.11-1.89-5.29-3.64-10.62-4.17-16.26A1.34,1.34,0,0,1,300.69,465Z" transform="translate(-185.65 -164.39)"/><path class="cls-57" d="M300.56,453.75a1.73,1.73,0,0,0,.11-.37,2.09,2.09,0,0,1,.38-1.11c1.92-2.21,2.15-5.38,4.25-7.5,1.58-.59,3.08,0,4.53.43,6.13,2,12.36,3.74,18.5,5.74a3.28,3.28,0,0,1,2,1.26c.67,1.3-.69,1.51-1.21,2.05-7.85,8.07-17.58,10.63-28.51,9.56C298.5,460.47,298.68,457.12,300.56,453.75Z" transform="translate(-185.65 -164.39)"/><path class="cls-44" d="M331.82,463.29v-9.91c6,7.08,12.72,9.55,21.17,7.14-.13,2.33-1.15,4.22-1.87,6.19a94.72,94.72,0,0,1-6.59,14.68c-.31.55-.64,1.36-1.11,1.48-4.12,1-8.23,2.52-12.56,1.05-1.54-.52-2.38-1.23-1.84-3.19a11.12,11.12,0,0,0,.65-4.84.89.89,0,0,1,0-.79c.7-1.06.93-3.12,2.62-2.55s.58,2.31.43,3.58c-.08.69-1.17,1.64.08,2.05,1,.33,1.58-.64,1.87-1.57.5-1.59,1.46-3-.84-4.38-1.45-.86.11-1.79,1-2.38,1.17-.78,2.85-1.08,2.57-3.07-.22-1.57.31-3.6-2.44-3.58a11.88,11.88,0,0,1,.27,4.76c-.2.85-.63,1.59-1.62,1.55s-.87-.85-.92-1.46C332.51,466.44,331.27,465,331.82,463.29Z" transform="translate(-185.65 -164.39)"/><path class="cls-58" d="M290.11,450c-1.42,3.34-1.35,3.29-3.66.58-2.17-2.56-4.5-5-6.78-7.44a4.93,4.93,0,0,1-1.66-2.42c-.17-4.31,1.33-8.38,1.81-12.59a1.9,1.9,0,0,1-.22-1.57,144.82,144.82,0,0,1,4.67-14.5,1.5,1.5,0,0,1,1-.83,10.44,10.44,0,0,0,1.65-4.48,12.55,12.55,0,0,1,2.77-7.44,7,7,0,0,0,1-3.9c-.23-9.11.09-18.16,2.7-27a9.19,9.19,0,0,0,.11-2.17v0c.8-1.55,1.13-3.75,3.78-2.81.85,1,.29,2.06.06,3.1a86.94,86.94,0,0,0-1.69,25.94l.59.6c0,.09.06.22,0,.26-3.37,3.23-3.16,7.75-4.23,11.79-2.53,9.59-6.32,18.87-7.34,28.85-.24,2.36-.61,4.7-.86,7.06a5.25,5.25,0,0,0,2.33,5.18C287.65,447.33,289.23,448.32,290.11,450Z" transform="translate(-185.65 -164.39)"/><path class="cls-5" d="M282.49,461.08c-2.28,2.54-4.86,4.85-8.28,5.41-6.89,1.13-11.1-3.35-9.66-10.25,1.23-5.91,3.87-11.34,6.31-16.83.62-1.41,1.7-1.46,2.94-1.33.43-.12.59,0,.46.46,2.8,2,3,5.2,3.27,8.2.49,4.68,1.53,9.08,4.66,12.79C282.49,459.88,282.4,460.55,282.49,461.08Z" transform="translate(-185.65 -164.39)"/><path class="cls-44" d="M332,452.29c-.07-.9-.13-1.81-.2-2.71-1.66-2.23-1-4.91-1.42-7.39-.75-4.48-1.78-8.9-2.53-13.39-.13-.74-.58-1.71.36-2.22.72-.4,1.43.15,2,.54,2.28,1.58,4.49,2.37,6.92.23.88-.78,1.75-.3,2.22.66,2.62,5.41,5.87,10.47,8.57,15.83,1.36,2.7,1,3.37-2,4.23a40.73,40.73,0,0,0-6.69,2.32C336.85,451.14,334.75,453,332,452.29Z" transform="translate(-185.65 -164.39)"/><path class="cls-30" d="M338.24,450.41c2.16-2,5.05-2.28,7.7-3,1.9-.55,2.51-1.07,1.39-3.05-3-5.3-5.8-10.71-8.67-16.08-.26-.49-.56-1.16-1.15-.5-3.14,3.51-5.81,1.39-8.51-.64a5.14,5.14,0,0,0-.86-.4c1.47,7.69,3.36,15.16,3.65,22.88h-.43a1.35,1.35,0,0,1-1-.76c-1.14-7.21-2.05-14.46-3.79-21.76a14.48,14.48,0,0,1-4.85,3.43,8.83,8.83,0,0,1-7.66-.49c-2.57-1.28-2.6-1.24-3.37,1.62-.34,1.23-.7,2.46-1.08,3.68-.29.95-.51,2-1.67,2.32a1,1,0,0,1-.62-.59,3.65,3.65,0,0,1,.08-2.42c2.52-7.83,3.09-15.88,2.81-24-.14-3.92,0-7.84,0-11.76,0-1.29-.21-2.37-1.67-2.71a.8.8,0,0,1-.43-.73c2.44-2.78,1.66-6.11,1.44-9.27-.15-2.07-.4-4.13-.41-6.2-.54-1.23.06-2.5-.14-3.74.33-.72.65-1.43,1-2.14a11.26,11.26,0,0,0,3.28-2.12,9.25,9.25,0,0,1,4.1-3.07c2.58-1,4.3-.55,6.26,1.71l0,1.22c-1.92-.14-2.7.45-2.26,2.62.73,3.58.29,7.25.3,10.88,0,1.88.52,3.09,2.52,3.56a13.58,13.58,0,0,1,4.76,2.59c0,1.1,0,2.2,0,3.3-1.56-1-2.77-2.53-4.6-3.21-1.33-.49-2.16-.52-2.15,1.16A42.56,42.56,0,0,0,324,405.07c1,3.11,4.13,4.08,7.95,2.87.53.45.42,1.06.43,1.65-2,2.2-3.21,2.26-7.65.28,1.24,3.91,2.13,7.81,3,11.73.56,2.61,2.36,4.25,4.45,5.64a2.47,2.47,0,0,0,3.06-.09,2.27,2.27,0,0,0,.74-2.92c-.55-1.45-1.05-2.91-1.49-4.4-.31-1-.77-2.09,0-3.14,2,1.47,1.41,4.19,2.81,6,3.43,6,7,12,10,18.2.83,1.74,2.68,3.1,2.19,5.39a1.33,1.33,0,0,0,.62,1.22c2,2.46,2.5,5.62,4.07,8.27.65,1.09,1.19,2.24,1.79,3.36,1,1.81,2.18,2.29,3.87,1l.15-.09c.44,1.34.23,2.62-1.09,3.2s-2.17-.54-3-1.43c-.48-.53-1-1.08-1.43-1.61a1.21,1.21,0,0,0-1.16-.67,57.41,57.41,0,0,1-3.13-7c-1.76-4.41-1.74-4.36-6.39-2.91C342,450.11,340.26,451.33,338.24,450.41Z" transform="translate(-185.65 -164.39)"/><path class="cls-59" d="M331.82,463.29c.8,1.89,1.82,3.71,1.66,5.89,1.42-.39,1.21-1.38,1.13-2.28-.13-1.45-.34-2.89-.46-4.34,0-.48-.32-1.2.41-1.38s1.09.39,1.23,1.09c.47,2.38.27-.38.48-.07a.86.86,0,0,1,1.55.5,51.81,51.81,0,0,1,.38,5.71c0,.89-.92,1-1.55,1.34-1,.5-2.09,1-3.13,1.44.47,1.58,3.39.33,2.73,2.74-.75,2.73-1,6-5.37,5.4.56-1.75,1.1-3.54,1.7-5.32.18-.51.13-.9-.33-1.15-.63-.35-.65.19-.88.58-.5.86-1.13,1.64-1.7,2.45a2.36,2.36,0,0,0-.46,0,7.28,7.28,0,0,0-1.14-1.52c-.49-.4-.13-2-1.5-1.19-.92.52-2.09.82-1.93,2.31a17.67,17.67,0,0,1,.08,3c0,.52.47,1.46-.57,1.46-.86,0-1.12-.7-1.08-1.56.06-1.52,0-3.05,0-5.06-1.43,1.28-.28,2.57-.56,3.59-.21.75.73,2.08-.63,2.2s-.82-1.3-1-2.09c-.68-2.78.31-4.31,3.26-4.51a10,10,0,0,0,2.23-.72,9.29,9.29,0,0,0-1-.62c-1.19-.53-3.74.2-3.45-1.44.5-2.77.8-6,3.72-8.4.06,3.48-2.31,5.89-1.63,8.85,0,.18.81.19,1.34.3-1.47-2.16.89-8.67,3.66-9.58-.91,2.47-1.75,4.72-2.58,7-.25.67-.67,1.59.4,1.72,1.25.16.2-.83.4-1.27a41.13,41.13,0,0,1,3.58-6.12Z" transform="translate(-185.65 -164.39)"/><path class="cls-44" d="M338.24,450.41c3-.85,5.95-1.69,8.92-2.56.84-.25,1.59-.45,2,.59,1.47,3.43,2.95,6.85,4.39,10.28.07.17-.21.48-.33.72-8.81,2.44-15.6.16-21.27-7.15Z" transform="translate(-185.65 -164.39)"/><path class="cls-44" d="M306.21,484.78c7,1.18,14,2.15,20.92-.5.89,8.66-10.59,14.31-17.1,11.27C307.79,492.3,306.09,488.86,306.21,484.78Z" transform="translate(-185.65 -164.39)"/><path class="cls-11" d="M311.14,496.84c5.46,1.51,9.85-.72,14.36-4.55-1.09,3.54-1.95,6.47-2.91,9.38-.87,2.67-1.9,5.33-1.94,8.17-.07,3.87-2.5,5.54-5.73,6.59a6.91,6.91,0,0,1-1.37-5.16,22.17,22.17,0,0,0-2.21-11.13C310.86,499.15,310.15,498,311.14,496.84Z" transform="translate(-185.65 -164.39)"/><path class="cls-44" d="M343.31,483.92c-2.55,3.94-4.62,7.14-6.68,10.35-1.43,2.22-3.3,3.39-6,2.51-2.18-.71-4.08-3.94-3.71-6.43.26-1.7.76-3.37,1.16-5.05.16-.7.49-1.26,1.31-.94C333.8,486.09,338.17,485.07,343.31,483.92Z" transform="translate(-185.65 -164.39)"/><path class="cls-11" d="M328.54,504.92c-1.72,2.84-1.34,6.06-1.64,9.15-.11,1.14.2,2.5-1.64,2.46-2.93-.8-4-2.79-3.86-5.73.12-3.72,1.6-7.05,2.58-10.53.66-2.32,1.35-4.64,2.17-7.47,1.5,3.5,3.51,5.64,7.67,5Z" transform="translate(-185.65 -164.39)"/><path class="cls-15" d="M285.3,411.24q-2.74,8.46-5.48,16.9l-1.17.58c-1.33.43-2.54.8-3.66-.63a3.88,3.88,0,0,1-.66-4.27c2.11-5.33,4.89-10.39,6.61-16.43C282,409.52,284.53,409.22,285.3,411.24Z" transform="translate(-185.65 -164.39)"/><path class="cls-22" d="M300.69,465a92.56,92.56,0,0,0,4.85,18.58c-2.36.18-4.15-.47-5.22-2.87-2.37-5.33-4.92-10.58-7.39-15.87a1.85,1.85,0,0,1-.26-1.77A42.63,42.63,0,0,0,300.69,465Z" transform="translate(-185.65 -164.39)"/><path class="cls-22" d="M311.14,496.84c0,.27-.06.6.07.8,3.58,5.81,3,12.44,3.71,18.79-5,0-6.06-1.12-5.08-5.9.87-4.29-.24-8.2-2-12-.41-.89-.69-1.85-1.13-3.06C308.39,495.69,309.6,496.89,311.14,496.84Z" transform="translate(-185.65 -164.39)"/><path class="cls-60" d="M330.86,449c.17.2.33.4.5.59,0,1,0,2-1,2.62-7.45-2.2-14.91-4.39-22.35-6.62a6.83,6.83,0,0,0-2.94-.29,5.8,5.8,0,0,1,1.5-4.13c1.34-.57,2.5.13,3.65.61,5.62,2.35,11.07,5.09,16.69,7.43C328.28,449.78,329.61,450.37,330.86,449Z" transform="translate(-185.65 -164.39)"/><path class="cls-61" d="M274.26,438.54l-.46-.46c-3.33-3.25-1-6.65-.49-10.54,1.52,1.74,2.9,2.71,4.82,2.23,1.24,1.08.12,2.26-.06,3.26-.4,2.27-.14,4.68-1.1,6.87C275.8,439.76,275.36,438.51,274.26,438.54Z" transform="translate(-185.65 -164.39)"/><path class="cls-60" d="M300.56,453.75c-.94,3.36-.44,6.71.07,10.06a16.09,16.09,0,0,1-8.12-2.23c1.39-1.22,3.15-1.68,3.7-3.41Z" transform="translate(-185.65 -164.39)"/><path class="cls-22" d="M306.21,484.78,310,495.55c-2.55-.55-4.44-1.77-5.19-4.5a48.74,48.74,0,0,0-1.87-4.51c-.25-.65-.62-1.57-.35-2,.45-.77,1.29,0,2,.08Z" transform="translate(-185.65 -164.39)"/><path class="cls-62" d="M319.82,520.88a11.67,11.67,0,0,0-1.87,0c-2.71.46-3.51-.81-3-3.29a13.44,13.44,0,0,0,5.28-3.38A19.74,19.74,0,0,1,319.82,520.88Z" transform="translate(-185.65 -164.39)"/><path class="cls-63" d="M326.3,517.67c.66,2.72-.58,3.58-3.12,3.2-.71-.1-1.43-.08-2.15-.11a12.75,12.75,0,0,1,.61-5.17A7.67,7.67,0,0,0,326.3,517.67Z" transform="translate(-185.65 -164.39)"/><path class="cls-48" d="M324.7,525.72c.67.28,1.53-.2,2.09.52l-9.13,4.59c-.62-1.63,1.06-1.5,1.7-2.1a18.82,18.82,0,0,1,2.65-1.82Z" transform="translate(-185.65 -164.39)"/><path class="cls-3" d="M295.68,392.53c-1.61.58-1.09-.7-1.1-1.33-.19-9.17,0-18.3,2.7-27.17a1.94,1.94,0,0,0,0-.54l1.77-.58c.83-.49,1.86-.47,2.66-1a9.53,9.53,0,0,0,3.57-1.75c1.49-.47,2.39-2,4-2.23,0,5.16,1.31,10.34-.46,15.46C306.24,381,301.3,387,295.68,392.53Z" transform="translate(-185.65 -164.39)"/><path class="cls-64" d="M313.22,304.27c0,2.55,0,5.1,0,7.65a7.7,7.7,0,0,1-.63,3.19,2.76,2.76,0,0,1-2.86,1.68c-1.33-.05-1.34-1.14-1.53-2.17a47,47,0,0,0-6.34-16.7c-1.61-2.56-1.5-2.91,1.38-3.5,2.38-.49,4.8-.84,7.22-1.09,1.67-.17,2.8.46,2.74,2.47-.08,2.82,0,5.64,0,8.47Z" transform="translate(-185.65 -164.39)"/><path class="cls-45" d="M293.53,366.26c-1.78,3.4-2.19,7.17-2.68,10.87-.3,2.17-1.57,3-3.36,3.3s-2.48-1.06-3.2-2.38a6.39,6.39,0,0,1-.59-4.5,102.14,102.14,0,0,1,3.92-13c.13-.37.61-.62.93-.92v0a3.72,3.72,0,0,0,2.32,2.18c2.62.58,2.9,2.34,2.67,4.5Z" transform="translate(-185.65 -164.39)"/><path class="cls-15" d="M283,378.35c1.76,2.82,3.42,4,6,2.55,1-.61,1.25.2,1.25,1q0,6.15,0,12.32a1.37,1.37,0,0,1-1.13,1.58,5.61,5.61,0,0,1-7.08-5.22A83.79,83.79,0,0,1,283,378.35Z" transform="translate(-185.65 -164.39)"/><path class="cls-22" d="M288.55,359.64c.13-3.76,2.12-6.92,3.39-10.3.86-2.29,2.09-4.44,3.35-7.08,1.17,2.07,2.8,2.51,5.24,1.31-1.2,3.33-2.24,6.18-3.25,9-.82,2.31-1.73,4.6-2.36,7s-1.84,2.53-3.76,1.41c-.84-.49-1.51-1.38-2.62-1.37Z" transform="translate(-185.65 -164.39)"/><path class="cls-65" d="M314.4,292.64c-1.22-2.11-.4-4.33.07-6.32,1.09-4.58-.49-8.64-1.78-12.8a3.72,3.72,0,0,1,4.25-3.36c1.1.26.64,1.18.6,1.76-.23,4.28,1.09,8.26,2.29,12.26a3.59,3.59,0,0,0,1.14,2.11.77.77,0,0,1,.56.79C320.24,290.32,317.64,291.9,314.4,292.64Z" transform="translate(-185.65 -164.39)"/><path class="cls-15" d="M289.72,399.32a43.76,43.76,0,0,1-2.77,7.44,3.64,3.64,0,0,0-.47.28c-1,.74-1.84,2.22-3.17,1.6a3.64,3.64,0,0,1-1.73-3.76c.53-3.39.26-6.81.47-10.7,1.93,1.94,3.77,3.06,6.23,2.8C290,396.8,289.53,398.35,289.72,399.32Z" transform="translate(-185.65 -164.39)"/><path class="cls-15" d="M285.76,355.25c.18-2.9,2.67-4.85,3.13-7.87l-2.43.79c-.83-1.77.54-3.05,1-4.54.82-1.31,2.19-1.78,3.53-2.32,1-.17,2-.62,3.06-.88h0c1.2.11,1,.75.59,1.51Q291,349,288.05,356.38c-.17.42-.26,1-.86.79C286.32,356.87,286.23,355.9,285.76,355.25Z" transform="translate(-185.65 -164.39)"/><path class="cls-22" d="M315.45,317.86c-2.3,2.23-3.18,5.26-4.37,8.06-2.66,6.27-5.11,12.63-7.65,18.94a6.23,6.23,0,0,1-.27-5.38c2.81-7.17,6.24-14.05,9.3-21.11C313.33,316.35,314.21,316.64,315.45,317.86Z" transform="translate(-185.65 -164.39)"/><path class="cls-22" d="M301.74,361.89c-.6,1.08-1.64,1-2.66,1-4.21-.07-4.36-.24-3-4.09,1.71-4.95,3.47-9.89,5.49-15.64.8,1.77,1.28,2.84,1.77,3.91-1.68,1.47-1.69,3.7-2.44,5.57-.94,2.35-1.62,4.8-2.4,7.2-.61,1.85-.6,3.1,1.93,2.13A4.54,4.54,0,0,1,301.74,361.89Z" transform="translate(-185.65 -164.39)"/><path class="cls-66" d="M314.79,293.78c.93,3.76,2.07,7.47,2.29,11.38a26.43,26.43,0,0,1-1.74,11.17c-1.51-.85-1.7-2.19-1.47-3.76a55.7,55.7,0,0,0,.06-14.65C313.77,296.58,312.92,294.81,314.79,293.78Z" transform="translate(-185.65 -164.39)"/><path class="cls-15" d="M277.54,375c1.49.56,2.18,2.31,4,2.52.67.07.52,1.3.38,2-.76,3.41-.4,6.87-.56,10.37-2.39-2.34-4.31-7.31-3.8-14.88Z" transform="translate(-185.65 -164.39)"/><path class="cls-67" d="M321.53,287.08l-.56-.79,0-10.57c.87-.46,1.75-1.27,2.61,0,.84,3.44.25,7,.78,10.47.14.88.15,2.68-1.87,1.7Z" transform="translate(-185.65 -164.39)"/><path class="cls-13" d="M305.56,315.74c.19-5.23-2.47-9.54-4.56-14-.46-1-.94-2-1.46-2.91s-.67-1.71.5-2.22A50.16,50.16,0,0,1,307,312.82C307.19,313.81,308.36,315.93,305.56,315.74Z" transform="translate(-185.65 -164.39)"/><path class="cls-4" d="M322.52,287.92c1.26.58,1.32-.21,1.3-1.12l-.21-11.05c.08-.53.15-1.06.23-1.59.62,4.18.63,8.47,2,12.53h0c-.75.94-1.51,1.88-2.26,2.83l-1.56-.6C322.19,288.59,322.36,288.25,322.52,287.92Z" transform="translate(-185.65 -164.39)"/><path class="cls-68" d="M331.27,284c-1.42,0-2.46-.51-2.06-2.08a14.29,14.29,0,0,1,5.11-8.17,3.91,3.91,0,0,1,2.58-.74c1.36,0,2,.54,1.06,1.81a28.15,28.15,0,0,0-3.47,7.07A3.17,3.17,0,0,1,331.27,284Z" transform="translate(-185.65 -164.39)"/><path class="cls-69" d="M328.62,284.59c.52.15,1.1.54,1.55.42,3.92-1,3.27,1.33,2.79,3.64a16.09,16.09,0,0,0-.49,3.21c0,1.54-.06,2.95-1.89,3.43s-2.95-.44-3.84-1.85c-.15-.22-.25-.48-.38-.72A15.62,15.62,0,0,1,328.62,284.59Z" transform="translate(-185.65 -164.39)"/><path class="cls-70" d="M340.61,285.08c-3-.05-3.63-.88-2.6-3.46a12.3,12.3,0,0,1,3.56-5.39,1.92,1.92,0,0,1,2-.37,1.66,1.66,0,0,1,.92,1.81c-.15,2.39-1.28,4.51-1.92,6.77C342.33,285.4,341.19,284.94,340.61,285.08Z" transform="translate(-185.65 -164.39)"/><path class="cls-71" d="M338.25,294.36c-1.28.13-2.24-.49-2-2.33s.4-3.58.59-5.37c.08-.81.54-1.19,1.27-.92a9.48,9.48,0,0,0,3.21.45c.5,0,.93.26.86.8-.29,2.05-.53,4.12-1,6.13C340.86,294.27,339.67,294.3,338.25,294.36Z" transform="translate(-185.65 -164.39)"/><path class="cls-4" d="M328.62,284.59a27.5,27.5,0,0,1-2.26,8.13c-1.62-1.89-.86-4-.52-6h0a3.2,3.2,0,0,0,1.09-2C327.39,282.56,328,283.77,328.62,284.59Z" transform="translate(-185.65 -164.39)"/><path class="cls-11" d="M311.05,535.14c2.54-1.84,5.61-2.57,8.39-3.9,3.51-1.67,7-3.28,10.27-5.93a60.26,60.26,0,0,1,2.13,11.15,2.61,2.61,0,0,1-.7,2c-5.23,6.49-12.27,8.81-20.29,8.82-1.71,0-2.9-1.39-4.28-2.22C305.63,541.89,307.68,537.37,311.05,535.14Z" transform="translate(-185.65 -164.39)"/><path class="cls-44" d="M340.1,534.88a.42.42,0,0,0,.38.25c2.73,2,3.91,4.91,4.76,8,.72,2.65-1,4.45-3.71,3.84-4-.92-8.53-6-8.92-10.49-.32-3.64-1.09-7.19-1.7-11.18C334,528.82,336.39,532.5,340.1,534.88Z" transform="translate(-185.65 -164.39)"/><path class="cls-23" d="M337.75,556.94l-.45,1.14c-3-.84-4.88-3.1-4.86-6a76.48,76.48,0,0,1,.6-11.24c2.38,3.38,4.73,6.52,9.37,7.08C340.6,551,338.48,553.63,337.75,556.94Z" transform="translate(-185.65 -164.39)"/><path class="cls-21" d="M336.21,571.41c.42,1.23.84,2.47,1.27,3.71A15.48,15.48,0,0,0,339.1,580c.64,1.35.33,1.88-1.06,2.34a18,18,0,0,0-8.09,5.54c.73-3.76.88-7.59,1.67-11.28C332.12,574.31,334.13,572.67,336.21,571.41Z" transform="translate(-185.65 -164.39)"/><path class="cls-22" d="M311.05,535.14c-2.21,3-4.2,6.05-4.48,9.9-3.25-1.28-6.15-3.28-10.35-4.46C301.73,538.72,306.13,536.28,311.05,535.14Z" transform="translate(-185.65 -164.39)"/><path class="cls-72" d="M336.33,559.28c-2,3.36-1.27,6.86-.52,10.36-.54,2.23-3.09,2.6-4.14,4.46-.08-2.53-1.25-5.13,1-7.3a1.08,1.08,0,0,0,.13-1c-2.53-3.1-.26-6.3-.53-9.94Z" transform="translate(-185.65 -164.39)"/><path class="cls-72" d="M325.86,594.38c-4.77-1.72-8.36-5-11.54-8.8,4.84-.58,9,.44,11.72,4.92C326.9,591.89,327.11,593.14,325.86,594.38Z" transform="translate(-185.65 -164.39)"/><path class="cls-73" d="M341.77,580.57c1.7,1.3,3.15,3,5.42,3.4,1.57,1.82-.72,1.92-1.29,2.71-.7,1-1.59.38-1.92-.38C343.15,584.43,340.15,583.37,341.77,580.57Z" transform="translate(-185.65 -164.39)"/><path class="cls-73" d="M343.82,554.77a6.72,6.72,0,0,0-4.23,1.35c-.62-3.19,1.92-4.75,3.58-7.61Z" transform="translate(-185.65 -164.39)"/><path class="cls-74" d="M333.52,526.89c1.53-1,2.16.6,2.76,1.23,1.61,1.71,3.91,3.08,3.83,5.91A48.45,48.45,0,0,1,333.52,526.89Z" transform="translate(-185.65 -164.39)"/><path class="cls-75" d="M331.85,566.15c-.1.72-.62.82-1.2.8s-.91-.22-1-.76c-.06-.7.43-.93,1-1A1,1,0,0,1,331.85,566.15Z" transform="translate(-185.65 -164.39)"/><path class="cls-76" d="M339.55,577.36l1.5,2.73C339.25,579.9,339.05,578.82,339.55,577.36Z" transform="translate(-185.65 -164.39)"/><path class="cls-7" d="M294,340.43c-.82.58-1.41,1.7-2.71,1.14-.53.24-.68-.09-.76-.52.6-1.05,1.09-2.08.19-3.25-.73-1-.55-2.22-.85-3.55-2.78,1.94-5.41,3.71-8,5.47-.77.51-1.47,1.52-2.63.72l-.62,0,11.27-8.26c-1.58-1.33-4.53-.41-5.09-3.14,6.49,4.36,10.29-.89,14.6-4.14,1.2-.9,2.14-2.15,4-2.77-1,2.76-3.74,3.29-5.33,5a55.71,55.71,0,0,1-4.43,3.61,5.91,5.91,0,0,0-1.74,5.24c.12,1.4.62,2.58,2.45,1.51C294.52,338.58,292.62,339.36,294,340.43Z" transform="translate(-185.65 -164.39)"/><path class="cls-77" d="M317.28,261c1.58-.23,2.29.49,1.86,2-.72,2.52-.17,5.86-4,6.51-.71.12-1.5.45-2.07-.11s0-1.21.2-1.76c.6-1.81,1.38-3.55,2-5.36A1.63,1.63,0,0,1,317.28,261Z" transform="translate(-185.65 -164.39)"/><path class="cls-78" d="M311.46,287.24c-.92.63.13,3-2,2.43-1.83-.47-1.82-2-1.66-3.5A18.35,18.35,0,0,1,310,279.6C311.87,281.88,311.66,284.56,311.46,287.24Z" transform="translate(-185.65 -164.39)"/><path class="cls-79" d="M306.05,283.9l-1.82,3c-1.27-1.83.21-5.39,3-7.33C308.14,281.35,306.12,282.37,306.05,283.9Z" transform="translate(-185.65 -164.39)"/><path class="cls-80" d="M345.68,569.05c-.1,2,0,4-1,5.85-.66,1.32-1.25,1.75-2.34.52a21.79,21.79,0,0,1-5-10.44c-.39-2,2.53-5.19,4.6-5.36a2.24,2.24,0,0,1,2.53,1.94,29.6,29.6,0,0,1,.88,3.42C345.61,566.32,345.6,567.69,345.68,569.05Z" transform="translate(-185.65 -164.39)"/><path class="cls-29" d="M337.79,319.19c.08,2.27,1.7,3.66,3,5.15a61.55,61.55,0,0,0,8.53,7.76l-5.94.48c-3.09-1.83-5.93-3.86-6.66-7.72-.07-.37-.28-.39-.41-.05a3.44,3.44,0,0,0-.09.8c-1.14-1.67-.33-3.61-.72-5.38Z" transform="translate(-185.65 -164.39)"/><path class="cls-22" d="M360.94,349.17c2.29,1.92,3.6,6.15,2.64,8.78-.6,1.64-2.2,2.16-3.63,2.58s-2.08-1.09-2.89-2c-2.14-3.07-5.33-5.11-8.1-8,3.89-.9,4.94-3.38,4.11-7.32Z" transform="translate(-185.65 -164.39)"/><path class="cls-15" d="M279.24,340.44c4-2.2,7.62-5.07,11.93-7.93-.67,2.65-.35,4.58,1.06,6.41,1.29,1.68-1,1.36-1.47,2.1a1.87,1.87,0,0,1-1.52,1c-3.31.87-6.1,2.81-9,4.41-.7.39.19.42.16.66-1.45,1.11-2.83.24-4.1-.31s-.95-1.54-.49-2.57C276.52,342.56,278.12,341.73,279.24,340.44Z" transform="translate(-185.65 -164.39)"/><path class="cls-22" d="M265.57,357.54c-2.21,1.07-3.87.09-5.11-1.62-.95-1.32.23-4.57,2-6a9.76,9.76,0,0,1,1.42-.79l10.69-5.35c-.45,1.84-.28,3.41,1.37,4.42.15,1.16-.84,1.46-1.52,2-2.71,2.1-5.8,3.65-8.53,5.73C265.23,356.45,264.76,356.82,265.57,357.54Z" transform="translate(-185.65 -164.39)"/><path class="cls-21" d="M276.36,355.73c-2.74,1.53-4.87,3.78-7.08,5.95-.59.58-1.15,1.71-2.22.86-.85-.68-.16-1.5.09-2.25.73-2.19,2.59-3.48,4.07-5.06.67-.72,1.66-1.17,2-2.2l.16-.32a13.85,13.85,0,0,1,2.73-2.34l.36-.05c.94.22,1.36-.76,2.14-.92C280,352.26,278.75,354.21,276.36,355.73Z" transform="translate(-185.65 -164.39)"/><path class="cls-72" d="M265.57,357.54l-2.24-.25c3.9-3.8,8.73-5.78,12.6-9.06l2.17-.1c-.1,1.15-1.57,1.15-1.64,2.19l0,0c-1.26.75-2.08,2-3.33,2.77l0,0c-1.41.14-2.09,1.32-2.95,2.18A7.15,7.15,0,0,1,265.57,357.54Z" transform="translate(-185.65 -164.39)"/><path class="cls-72" d="M288,343.7l-1.54,4.47c-1.23,1.66-3.25,2.22-4.81,3.42a1.3,1.3,0,0,1-1.52.2c-.63-.42-.45-1.15-.3-1.74a5.32,5.32,0,0,1,2.31-3.19c1.24-.83,2.82-1.22,3.67-2.6.07-.11.14-.21.2-.32C286.63,343.48,287.25,343.06,288,343.7Z" transform="translate(-185.65 -164.39)"/><path class="cls-81" d="M280.36,347.09l-1.07-.12c3.21-2,5.83-5.05,9.91-5.38-.35,1.89-2.47,1.55-3.41,2.7l0,0C283.66,344.56,282.21,346.2,280.36,347.09Z" transform="translate(-185.65 -164.39)"/><path class="cls-82" d="M359.75,460c-1.21,2.76-2,2.91-3.75.44a45.41,45.41,0,0,1-6-13,15.5,15.5,0,0,1,7.4,7,20.16,20.16,0,0,0,1.81,2.35C359.46,457.86,359.08,459,359.75,460Z" transform="translate(-185.65 -164.39)"/><path class="cls-15" d="M254.58,365.14a6,6,0,0,0-2.27-2.21l0,0c-.39-2.09-2.27-3-3.56-4.35s-1.68-2,.37-2.87c3.53-1.44,7-3,11-4.8-1.56,3.06-1.55,5.58,1,7.6A10.87,10.87,0,0,1,254.58,365.14Z" transform="translate(-185.65 -164.39)"/><path class="cls-23" d="M264.92,361.46c2.82,2.18,1.33,3.88-.1,5.75a28.27,28.27,0,0,0-4.18,8.86,11.11,11.11,0,0,1-1.42,2.84,28.31,28.31,0,0,0-1.56-7.44,1.53,1.53,0,0,1,.27-1.75Z" transform="translate(-185.65 -164.39)"/><path class="cls-83" d="M254.58,365.14l6.55-6.6h5.39c-3.17,3.53-6.07,6.78-9,10-.54.59-1,.2-1.27-.32C255.69,367.21,255.14,366.17,254.58,365.14Z" transform="translate(-185.65 -164.39)"/><path class="cls-84" d="M349.4,446.24c-3.89-7.94-9-15.27-12.15-23.59,1-.19,1,.77,1.38,1.25,2.51,3.62,5,7.28,7.44,10.94a102.11,102.11,0,0,1,7.77,12.85Z" transform="translate(-185.65 -164.39)"/><path class="cls-82" d="M323.6,370.54c-3.92-3.14-7.1-.58-10.36,1.36.18-.71.4-1.4.52-2.11,1.16-6.5,3.92-8.17,10.38-6.27A24.72,24.72,0,0,1,323.6,370.54Z" transform="translate(-185.65 -164.39)"/><path class="cls-3" d="M290.11,450a22.1,22.1,0,0,1-6.43-5c-1.48-1.61-.58-4-.42-6,.88-11.53,4.68-22.38,7.83-33.38a29.54,29.54,0,0,0,1.2-5c.32-3.07,1-5.81,4-7.42l2.45-1.83A125.19,125.19,0,0,1,290.11,450Z" transform="translate(-185.65 -164.39)"/><path class="cls-15" d="M309,376.16c.28,1.12.57,2.24.85,3.36-2.43,3.84-2.66,8.11-2.44,12.48a5.76,5.76,0,0,0,.93,3.32v.77c-.1,1-.55,1.51-1.59,1.39a35.46,35.46,0,0,0-6.08,4.46,40.8,40.8,0,0,1-1.08-11.5c0-.52.63-1.05,1-1.56C303.6,384.79,306.94,380.9,309,376.16Z" transform="translate(-185.65 -164.39)"/><path class="cls-4" d="M309.32,357.91c-1.43.57-2.14,2.44-4,2.23l4.06-3.26Z" transform="translate(-185.65 -164.39)"/><path class="cls-11" d="M334.44,416.69c.81,2.6,1.49,5.26,2.49,7.79a2.44,2.44,0,0,1-.88,3.09c-1,.88-2.15,1.63-3.46.8-2.62-1.67-5-3.4-5.71-6.89-.82-4.37-2.07-8.65-3.29-13.59,2.89,2.36,5.61,3.83,8.79,1.7C333.06,412,333.75,414.32,334.44,416.69Z" transform="translate(-185.65 -164.39)"/><path class="cls-44" d="M332,407.94c-.8,1.87-2.49,1.88-3.95,1.44-2.2-.66-4.29-1.92-4.87-4.34a59.09,59.09,0,0,1-1.73-13.77c0-.81.17-1.72,1.14-1.29,2.47,1.1,5.58,1.42,6.44,4.73C329.25,399.28,330.87,403.55,332,407.94Z" transform="translate(-185.65 -164.39)"/><path class="cls-85" d="M328.94,391.41c-2.62-.11-4.49-2.36-7.14-2.44-.59,0-.75-.71-.76-1.3-.16-5.71-.09-11.42-.66-17.16,1.45,0,2.25.85,3.24,1.24C323.16,378.91,324.64,385.55,328.94,391.41Z" transform="translate(-185.65 -164.39)"/><path class="cls-82" d="M306.74,397.48l1.59-1.39c.9-.12,1.42-1.57,2.32-1s.35,1.66.36,2.53c.11,9,.69,18-.51,27-.58,4.35-2,8.5-2.92,12.76.16,1.44-.06,2.71-1.52,3.43-1.05-.06-1.05-.76-1-1.55.35-3.33.66-6.66,1-10a184.31,184.31,0,0,0,.59-29.06C306.65,399.3,306.73,398.39,306.74,397.48Z" transform="translate(-185.65 -164.39)"/><path class="cls-86" d="M301.21,452.91l-.54.47c-1.22-3.19.92-7.92,3.69-8.16C304.33,448.2,302.33,450.37,301.21,452.91Z" transform="translate(-185.65 -164.39)"/><path class="cls-30" d="M301.21,452.91c.69-2.71,2.63-4.91,3.15-7.69.57-1.47,1.13-3,1.7-4.42.51-1.15,1-2.29,1.52-3.43l.28.22a2.64,2.64,0,0,1-1.13,3.66l-1.67,4A16.26,16.26,0,0,1,301.21,452.91Z" transform="translate(-185.65 -164.39)"/><path class="cls-57" d="M306.73,441.25c.37-1.22.75-2.44,1.13-3.66a36,36,0,0,0,2.61-8.55c.23-1,.37-1.7,1.74-1.05,7.48,3.61,8.78,3.39,14.85-2.39a175.21,175.21,0,0,1,3.8,23.39c.12,2.11-.63,2.46-2.57,1.6C321.14,447.4,313.92,444.35,306.73,441.25Z" transform="translate(-185.65 -164.39)"/><path class="cls-44" d="M312.25,410.71c4.77,2.79,7.45,0,10.23-3.92,1.38,5.68,2.91,10.85,3.84,16.13.62,3.52-6.07,7.44-10.09,6.15a12.65,12.65,0,0,1-4-2.25c-.56-.46-1.2-.91-1.06-1.78C311.88,420.39,311.84,415.67,312.25,410.71Z" transform="translate(-185.65 -164.39)"/><path class="cls-44" d="M310.52,376.79c0-1.85,4.83-6.62,8-6.72,1,0,1.18.55,1.21,1.36.23,5.37-.15,10.75.53,16.11A1.36,1.36,0,0,1,319,389.3a17.14,17.14,0,0,0-5.7,2.53c-.63.4-1.54,1.13-1.66-.49C311.31,386.9,311,382.46,310.52,376.79Z" transform="translate(-185.65 -164.39)"/><path class="cls-44" d="M322,404.36c0,2.67-3.47,6.26-6,6.33s-3.86-1.2-3.93-3.76c-.11-3.9.23-7.82-.37-11.72-.22-1.36.92-1.91,1.83-2.45,1.87-1.11,4-3,5.92-2.34s.9,3.61,1.22,5.49C321.16,398.77,321.56,401.65,322,404.36Z" transform="translate(-185.65 -164.39)"/><path class="cls-23" d="M308.32,395.32c-.63.13-1.67.87-1.59-.45.27-4.88-1.5-10.09,2.13-14.47a8.19,8.19,0,0,1,1-.88c.24,3.69.31,7.4.78,11.06C310.91,392.85,310.43,394.39,308.32,395.32Z" transform="translate(-185.65 -164.39)"/><path class="cls-28" d="M285.79,344.29c.66-1.5,2.63-1.35,3.41-2.7l1.56-.57.57.55L288,343.7Z" transform="translate(-185.65 -164.39)"/><path class="cls-41" d="M273.17,353.06a5.5,5.5,0,0,1,3.33-2.77A5.68,5.68,0,0,1,273.17,353.06Z" transform="translate(-185.65 -164.39)"/></svg>